<?xml version="1.0" encoding="UTF-8" standalone="no"?>
<!-- Created with Inkscape (http://www.inkscape.org/) -->

<svg
   width="85.381042mm"
   height="127.02646mm"
   viewBox="0 0 85.381042 127.02646"
   version="1.1"
   id="svg1"
   inkscape:version="1.4.2 (f4327f4, 2025-05-13)"
   sodipodi:docname="CAM.svg"
   xmlns:inkscape="http://www.inkscape.org/namespaces/inkscape"
   xmlns:sodipodi="http://sodipodi.sourceforge.net/DTD/sodipodi-0.dtd"
   xmlns="http://www.w3.org/2000/svg"
   xmlns:svg="http://www.w3.org/2000/svg">
  <sodipodi:namedview
     id="namedview1"
     pagecolor="#ffffff"
     bordercolor="#000000"
     borderopacity="0.25"
     inkscape:showpageshadow="2"
     inkscape:pageopacity="0.0"
     inkscape:pagecheckerboard="0"
     inkscape:deskcolor="#d1d1d1"
     inkscape:document-units="mm"
     inkscape:zoom="0.71891835"
     inkscape:cx="9.7368498"
     inkscape:cy="468.06428"
     inkscape:window-width="1920"
     inkscape:window-height="1009"
     inkscape:window-x="-8"
     inkscape:window-y="-8"
     inkscape:window-maximized="1"
     inkscape:current-layer="layer1" />
  <defs
     id="defs1" />
  <g
     inkscape:label="Layer 1"
     inkscape:groupmode="layer"
     id="layer1"
     transform="translate(-102.39375,34.13125)">
    <g
       id="g3"
       transform="matrix(0.26458333,0,0,0.26458333,102.39375,-34.13125)">
	<path
   class="st0"
   d="m 160.8,0 c 0.5,0.9 0.8,2 1.1,3 2.9,9.1 5.9,18.2 8.9,27.3 10.7,0 21.3,0 32,0 -8.6,6.3 -17.2,12.6 -25.8,18.8 3.2,10.2 6.7,20.3 9.8,30.5 -8.6,-6.3 -17.2,-12.5 -25.8,-18.8 -8.6,6.3 -17.3,12.5 -25.8,18.8 0.1,-0.5 0.2,-0.9 0.3,-1.3 3.2,-9.7 6.3,-19.4 9.5,-29.2 -8.6,-6.2 -17.1,-12.5 -25.8,-18.7 1.2,-0.3 2.4,-0.1 3.6,-0.2 9.4,0 18.9,0 28.3,0 3.2,-10 6.5,-20.1 9.7,-30.2"
   id="path1"
   style="fill:#facf00" />

	<path
   class="st1"
   d="m 161.3,91.1 c 8.1,12.3 18.7,22.8 30.2,31.8 15.8,12.2 34.2,21.1 53.8,24.9 18.9,3.8 38.6,2.7 57.2,-2.2 5.2,-1.2 10.3,-3.1 15.5,-4.6 2.7,12.6 3.8,25.5 4.3,38.3 0.1,1.7 0.1,3.4 0.4,5.1 v 9.5 c -0.6,7 -0.6,14.1 -1.3,21.2 -3.7,46 -17.2,91.1 -39.2,131.6 -3.4,6.7 -7.5,13 -11.3,19.5 -4.9,7.4 -9.6,14.9 -15,21.9 -4.3,6.1 -9,11.8 -13.7,17.5 -4,5.1 -8.5,9.8 -12.8,14.6 -3.5,4.1 -7.5,7.8 -11.3,11.7 -6.4,6.7 -13.5,12.8 -20.2,19.1 -4.2,3.6 -8.5,7.1 -12.7,10.6 -7.6,6.5 -16.1,12.1 -23.8,18.5 h -0.5 l -0.1,-0.4 c -8.1,-6.4 -16.6,-12.2 -24.4,-18.9 -5,-4.3 -10.3,-8.3 -15.1,-12.9 -5,-4.7 -10.3,-9.2 -15.1,-14.2 -4.5,-4.6 -9.2,-9.1 -13.5,-14 -3.3,-3.7 -6.6,-7.2 -9.8,-10.9 -5.6,-7 -11.5,-13.8 -16.6,-21.2 -5.2,-6.8 -9.8,-14 -14.5,-21.2 -2.3,-3.7 -4.5,-7.5 -6.7,-11.2 C 18.8,309.8 3.2,258.2 0.5,205.8 0.2,202 0.4,198.3 0,194.5 v -10.4 l 0.1,-1.5 c 0.4,-13.9 1.5,-27.9 4.4,-41.5 7.9,2.5 15.7,5.1 23.9,6.5 16.1,3.2 32.8,3.4 48.9,0.2 21.2,-4.1 41,-14.3 57.6,-28 10.1,-8.4 19.3,-17.8 26.4,-28.7 m 0,4.8 c -3.8,5.5 -8.3,10.5 -12.9,15.3 -11.9,12.1 -25.7,22.3 -41,29.5 -16.2,7.7 -34,11.9 -51.9,12.1 -16.6,0.3 -33.1,-3 -48.8,-8.3 -1.8,9.5 -2.8,19.2 -3.4,28.9 -3.1,58.2 10.4,116.9 37.5,168.4 16.3,31.2 37.6,59.6 62.1,84.8 17.9,18.4 37.6,35 58.4,50 36.4,-26.2 69.3,-57.5 95.4,-94.1 18.1,-25.3 32.9,-53 43.5,-82.3 13.9,-38.6 20.7,-79.8 19.4,-120.8 -0.5,-11.7 -1.4,-23.4 -3.7,-34.9 -18.6,6.5 -38.5,9.6 -58.2,7.8 -18.9,-1.6 -37.4,-7.9 -53.7,-17.7 -16.6,-9.9 -31.3,-23.1 -42.7,-38.7 m 0,20.3 c 7,8.4 15.3,15.6 24.1,21.9 15,10.6 31.9,18.3 49.8,22.6 20.9,5.1 42.9,5.2 64.1,1.4 2.2,-0.3 4.3,-0.9 6.5,-1.2 3.2,21.5 2.8,43.4 0.5,65 -4.4,39.2 -16.4,77.4 -35,112.2 -13.9,26.2 -31.4,50.3 -51.5,72.1 -17.8,19.2 -37.5,36.5 -58.5,52 C 138.1,445 116.4,425.7 97.3,404.1 74.1,377.9 54.7,348.2 40.6,316.1 32.1,296.6 25.5,276.3 21.1,255.5 15.5,229.1 13.2,201.9 15.2,175 c 0.4,-4.7 0.9,-9.4 1.6,-14 19.9,4.3 40.6,5.3 60.7,1.9 18.4,-3 36.2,-9.8 52.1,-19.6 11.8,-7.6 22.8,-16.4 31.7,-27.1 m -28.8,34 c -15.6,9.9 -33.2,16.8 -51.4,20 -19.1,3.4 -38.8,2.8 -57.8,-1.1 -1.5,10.6 -1.8,21.4 -1.7,32.2 0.3,13.4 1.6,26.7 3.7,39.9 90.6,0 181.3,0 271.9,0 2.3,-13.5 3.5,-27.1 3.8,-40.8 0.1,-10.5 -0.2,-20.9 -1.7,-31.3 -12.3,2.5 -24.9,3.7 -37.5,3.3 -18.6,-0.6 -37.1,-4.9 -54,-12.7 -17.5,-8.1 -33.7,-19.3 -46.5,-33.7 -8.2,9.5 -18.2,17.4 -28.8,24.2 m -105.3,101 c 8.1,40.5 24.8,79.2 48.2,113.2 0,-37.7 0,-75.5 0,-113.2 -16.1,0 -32.2,0 -48.2,0 m 59.4,0 c 0,42.9 0,85.7 0,128.6 2.5,3.7 5.5,7 8.3,10.4 10.5,12.5 21.9,24.4 34,35.4 0,-58.1 0,-116.2 0,-174.3 -14,-0.1 -28.1,-0.1 -42.3,-0.1 m 53.6,0 c 0,61.4 0,122.9 0,184.3 6.8,5.8 13.9,11.3 21,16.7 7.3,-5.3 14.3,-11 21.3,-16.8 0.1,-61.4 0,-122.8 0,-184.2 -14,0 -28.1,0 -42.3,0 m 53.6,0 c 0.1,58.1 0,116.1 0,174.2 15.4,-14 29.6,-29.3 42.3,-45.7 0,-42.8 0,-85.7 0,-128.5 -14,0 -28.1,-0.1 -42.3,0 m 53.7,0 c 0,37.5 0,75.1 0,112.6 2.1,-2.6 3.8,-5.5 5.7,-8.3 20.3,-31.8 34.9,-67.3 42.3,-104.3 -16,0 -32,0 -48,0 M 69.2,182.5 c 7.3,-2.7 15.7,-1.8 22.5,1.7 2.8,1.5 5.5,3.4 7.2,6.2 -3.5,2 -7,4.3 -10.5,6.4 -1.7,-3.1 -5.4,-4.4 -8.7,-4.8 -3.3,-0.4 -6.9,0.3 -9.3,2.7 -3.1,3.1 -4.1,7.8 -4,12.1 0.1,4.2 1.1,8.8 4.4,11.8 2.6,2.4 6.5,2.9 10,2.2 3.3,-0.6 6.7,-2.6 7.9,-5.9 3.6,2.2 7.2,4.4 10.8,6.6 -2.7,4.8 -7.5,8 -12.7,9.5 -6.9,2 -14.6,1.6 -20.8,-2 -5.4,-3 -9.3,-8.3 -11,-14.2 -2.1,-7.2 -1.4,-15.3 2.3,-21.9 2.5,-4.7 6.8,-8.5 11.9,-10.4 m 62.3,48.6 c 6.2,-16.4 12.2,-32.8 18.4,-49.1 4.3,0.1 8.6,0 12.9,0 6.1,16.4 12.2,32.7 18.4,49.1 -4.4,0.1 -8.9,0 -13.3,0 -1,-2.9 -2,-5.9 -3,-8.8 -5.7,0 -11.4,0 -17.1,0 -1.1,2.9 -2.1,5.9 -3.1,8.8 -4.4,0 -8.8,0 -13.2,0 m 19.2,-18.4 c 3.7,0.1 7.4,0 11.1,0.1 -1.8,-5.7 -3.7,-11.4 -5.5,-17 -2,5.5 -3.6,11.3 -5.6,16.9 M 212.9,182 c 6.3,0 12.6,0 18.8,0 2.9,10.9 5.6,21.8 8.6,32.6 2.8,-10.9 5.6,-21.8 8.5,-32.6 6.2,0 12.5,0 18.8,0 0.1,16.4 0,32.7 0.1,49.1 -4,0.1 -8.1,0.1 -12.1,0 0,-11.3 -0.1,-22.5 -0.1,-33.8 0,-1 0,-1.9 -0.1,-2.9 -3.5,12.2 -6.8,24.4 -10.2,36.7 -3.3,0.1 -6.6,0 -9.8,0 -3,-10.8 -6,-21.5 -9,-32.3 -0.5,-1.5 -0.7,-3 -1.4,-4.4 0,12.2 0,24.5 0,36.7 -4,0 -8,0 -12,0 L 212.9,182"
   id="path2"
   style="fill:#ffffff" />

	<path
   class="st2"
   d="m 161.4,95.6 c 11.5,15.6 26.2,28.8 42.7,38.8 16.3,9.8 34.8,16 53.7,17.7 19.7,1.8 39.6,-1.4 58.3,-7.8 2.3,11.5 3.2,23.2 3.7,34.9 1.3,41 -5.4,82.2 -19.4,120.8 -10.6,29.3 -25.4,57 -43.5,82.3 -26.1,36.5 -59.1,67.9 -95.5,94.1 -20.8,-15 -40.5,-31.6 -58.4,-50 C 78.4,401.3 57.2,372.8 40.8,341.6 13.7,290.1 0.2,231.3 3.3,173.1 c 0.6,-9.7 1.5,-19.3 3.4,-28.9 15.7,5.3 32.2,8.5 48.8,8.3 17.9,-0.2 35.8,-4.4 51.9,-12.1 15.3,-7.3 29.2,-17.5 41.1,-29.5 4.6,-4.7 9.1,-9.8 12.9,-15.3 m 0,20.4 c -8.9,10.7 -20,19.5 -31.8,26.9 -15.9,9.8 -33.7,16.5 -52.1,19.6 -20.1,3.4 -40.8,2.3 -60.7,-1.9 -0.8,4.6 -1.3,9.3 -1.6,14 -2,27 0.4,54.1 5.9,80.6 4.4,20.8 11,41.1 19.5,60.6 14,32.1 33.5,61.8 56.7,88 19.1,21.7 40.8,41 64.1,58.1 21.1,-15.5 40.8,-32.8 58.6,-52 20.1,-21.7 37.6,-45.9 51.6,-72.1 18.6,-34.8 30.6,-73 35,-112.2 2.3,-21.6 2.7,-43.5 -0.5,-65 -2.2,0.3 -4.4,0.9 -6.5,1.2 -21.2,3.8 -43.2,3.7 -64.1,-1.4 -17.8,-4.3 -34.8,-12 -49.8,-22.6 -9,-6.3 -17.3,-13.5 -24.3,-21.8 m -28.9,34 c 10.6,-6.8 20.6,-14.7 28.9,-24.2 12.8,14.4 29.1,25.7 46.6,33.7 16.9,7.7 35.4,12 54,12.7 12.6,0.5 25.2,-0.7 37.5,-3.3 1.5,10.4 1.8,20.8 1.7,31.3 -0.3,13.7 -1.5,27.3 -3.8,40.8 -90.7,0 -181.4,0 -272.1,0 -2.1,-13.2 -3.5,-26.5 -3.7,-39.9 -0.2,-10.7 0.1,-21.5 1.7,-32.2 19,3.9 38.7,4.5 57.8,1.1 18.2,-3.2 35.8,-10.2 51.4,-20 m -63.3,32.3 c -5.1,1.9 -9.5,5.6 -12.1,10.3 -3.7,6.6 -4.4,14.7 -2.3,21.9 1.7,5.9 5.7,11.1 11,14.2 6.3,3.6 14,4 20.9,2 5.2,-1.5 10.1,-4.7 12.7,-9.5 -3.6,-2.2 -7.2,-4.4 -10.8,-6.6 -1.2,3.3 -4.5,5.3 -7.9,5.9 -3.4,0.7 -7.3,0.2 -10,-2.2 -3.2,-3 -4.3,-7.5 -4.4,-11.8 0,-4.3 0.9,-8.9 4.1,-12.1 2.4,-2.4 6,-3.1 9.3,-2.7 3.4,0.4 7,1.7 8.7,4.8 3.5,-2.1 7,-4.3 10.5,-6.4 -1.6,-2.8 -4.4,-4.7 -7.2,-6.2 -6.8,-3.4 -15.2,-4.3 -22.5,-1.6 m 62.4,48.5 c 4.4,0 8.8,0 13.1,0 1,-2.9 2.1,-5.9 3.1,-8.8 5.7,0 11.4,0 17.1,0 1,2.9 2,5.9 3,8.8 4.4,0 8.9,0 13.3,0 -6.1,-16.4 -12.2,-32.7 -18.4,-49.1 -4.3,0 -8.6,0.1 -12.9,0 -6.1,16.3 -12.1,32.8 -18.3,49.1 M 213,181.7 v 49.1 c 4,0 8,0 12,0 0,-12.2 0,-24.5 0,-36.7 0.7,1.4 0.9,2.9 1.4,4.4 3,10.8 6.1,21.5 9.1,32.3 3.3,0 6.6,0.1 9.8,0 3.3,-12.2 6.7,-24.5 10.2,-36.7 0.1,1 0.1,1.9 0.1,2.9 0,11.3 0.1,22.5 0.1,33.8 4,0.1 8.1,0.1 12.1,0 -0.1,-16.4 0.1,-32.7 -0.1,-49.1 -6.3,0.1 -12.5,0 -18.8,0 -2.9,10.9 -5.6,21.8 -8.5,32.6 -3,-10.8 -5.7,-21.7 -8.6,-32.6 -6.2,0 -12.5,0 -18.8,0 m -62.2,30.8 c 2,-5.6 3.6,-11.4 5.6,-17 1.8,5.7 3.7,11.4 5.5,17 -3.7,0 -7.4,0.1 -11.1,0 M 27.2,251 c 16.1,0 32.1,0 48.2,0 0,37.7 0,75.5 0,113.2 C 51.9,330.2 35.2,291.5 27.2,251 m 59.5,0 c 14.1,0 28.3,-0.1 42.4,0 -0.1,58.1 0,116.2 0,174.4 -12.2,-11 -23.5,-22.8 -34.1,-35.4 -2.8,-3.5 -5.8,-6.8 -8.3,-10.5 -0.1,-42.8 0,-85.7 0,-128.5 m 53.6,0 c 14.1,0 28.3,0 42.4,0 0,61.4 0,122.8 0,184.3 -7,5.8 -14,11.5 -21.3,16.8 -7.1,-5.4 -14.2,-10.9 -21,-16.7 -0.1,-61.5 -0.1,-123 -0.1,-184.4 m 53.6,0 c 14.1,-0.1 28.3,0 42.4,0 0,42.8 0,85.7 0,128.5 -12.7,16.4 -27,31.7 -42.3,45.7 -0.1,-58 0,-116.1 -0.1,-174.2 m 53.7,0 c 16,0 32,0 48,0 -7.4,37 -22,72.6 -42.3,104.3 -1.9,2.8 -3.5,5.7 -5.7,8.3 0,-37.5 0,-75.1 0,-112.6"
   id="path3"
   style="fill:#1f1a17" />

</g>
  </g>
</svg>
