<svg xmlns="http://www.w3.org/2000/svg" width="128" height="169" viewBox="0 0 128 169" fill="none"><g clip-path="url(#clip0_115_706)"><path fill-rule="evenodd" clip-rule="evenodd" d="M108.783 0.19043L113.233 14.0813L127.675 14.0414L115.985 22.6023L120.472 36.4533L108.783 27.8526L97.0948 36.4533L101.618 22.6023L89.8905 14.0414L104.335 14.0813L108.783 0.19043Z" fill="#FFE300"/><path fill-rule="evenodd" clip-rule="evenodd" d="M63.7609 0L66.5129 8.63833L75.4862 8.59848L68.2133 13.9263L71.0029 22.527L63.7609 17.1992L56.4857 22.527L59.313 13.9263L51.9957 8.59848L61.0111 8.63833L63.7609 0Z" fill="#D3D5D6"/><path fill-rule="evenodd" clip-rule="evenodd" d="M18.892 0.19043L23.3023 14.0813L37.7818 14.0414L26.0565 22.6023L30.5421 36.4533L18.892 27.8526L7.20213 36.4533L11.6877 22.6023L0 14.0414L14.4419 14.0813L18.892 0.19043Z" fill="#FFE300"/><path fill-rule="evenodd" clip-rule="evenodd" d="M3.03098 53.4596C3.06861 61.8322 3.4937 70.3155 4.50993 78.0747L34.3457 47.04C33.252 47.3833 31.9524 47.7531 30.8587 48.0564C21.7702 50.5299 12.3453 52.0889 3.03098 53.4573" fill="black"/><path fill-rule="evenodd" clip-rule="evenodd" d="M9.21243 99.6942C11.2117 106.313 13.6781 112.746 16.7334 118.72L87.5414 44.8394C82.602 42.8996 77.729 40.4859 73.3519 37.3658C72.484 36.7591 71.6184 36.1125 70.7881 35.4282L9.21243 99.6942Z" fill="black"/><path fill-rule="evenodd" clip-rule="evenodd" d="M26.8602 134.852C30.5554 139.684 34.8704 144.367 39.5818 148.665L125.018 59.1377C125.055 57.2754 125.089 55.3267 125.124 53.46C119.279 52.5853 113.361 51.673 107.554 50.4551L26.8602 134.852Z" fill="black"/><path fill-rule="evenodd" clip-rule="evenodd" d="M4.62946 77.683C5.63904 85.3315 7.16448 92.6744 9.25449 99.6874L70.8124 35.4436C68.3925 33.5192 66.1608 31.3912 64.1107 29.0728C61.3233 32.1928 58.2325 34.9719 54.8008 37.3656C48.5064 41.8321 41.4726 44.8304 34.1952 47.0868L4.62946 77.683ZM10.1002 102.402C10.7711 104.473 11.4906 106.508 12.2633 108.516C11.4906 106.508 10.7733 104.468 10.1002 102.402ZM12.3784 108.815C12.5002 109.134 12.6242 109.451 12.7504 109.765C12.6242 109.451 12.498 109.132 12.3784 108.815ZM14.8958 114.798C15.4891 116.096 16.109 117.376 16.7555 118.64L87.4573 44.8259C82.5156 42.8839 77.7644 40.4857 73.3918 37.3656C80.6315 42.503 88.8499 45.6984 97.3339 48.0567C100.699 48.9779 104.12 49.7707 107.571 50.4748L26.8978 134.852C30.3052 139.305 34.0977 143.537 38.3619 147.538C28.1532 137.959 20.4529 126.993 14.8958 114.798ZM38.5767 147.742C38.8689 148.01 39.1589 148.282 39.4556 148.55L125.051 59.0179C125.089 57.1534 125.126 55.3288 125.164 53.462C125.073 73.1701 122.392 91.275 116.35 107.442C118.433 101.862 120.116 96.0558 121.429 90.0305L121.606 89.1824L54.3514 160.038C48.5374 156.245 43.2925 152.14 38.5767 147.742ZM108.213 124.602C108.346 124.378 108.475 124.152 108.608 123.928C108.477 124.152 108.346 124.378 108.213 124.602ZM111.041 119.473C111.189 119.178 111.342 118.886 111.488 118.592C111.34 118.886 111.189 119.178 111.041 119.473ZM112.422 116.683C112.757 115.99 113.078 115.294 113.399 114.595C113.08 115.294 112.757 115.99 112.422 116.683ZM113.578 114.196C113.744 113.829 113.906 113.459 114.067 113.087C113.903 113.459 113.742 113.826 113.578 114.196ZM114.22 112.732C114.767 111.464 115.296 110.181 115.799 108.884C115.296 110.181 114.769 111.461 114.22 112.732ZM115.825 108.817C116.002 108.366 116.173 107.907 116.343 107.456C116.173 107.909 116.002 108.366 115.825 108.817Z" fill="#D61F27"/><path fill-rule="evenodd" clip-rule="evenodd" d="M54.13 160.043C57.2207 162.055 60.7277 163.998 64.1594 165.822C96.9642 148.171 114.461 122.183 121.475 90.0302L121.606 89.1821L54.13 160.043Z" fill="black"/><path fill-rule="evenodd" clip-rule="evenodd" d="M64.2502 24.8341C71.2353 33.6297 79.9231 39.1103 90.4772 42.9235C101.038 46.7411 113.467 48.8913 127.925 51.0193L127.996 51.0304V51.1034C128.144 76.9719 123.995 100.243 113.912 120.146C103.828 140.051 87.8093 156.59 64.228 168.982L64.1882 169L64.1505 168.982C40.5671 156.59 24.5422 140.051 14.4463 120.146C4.3505 100.241 0.192619 76.9697 0.34317 51.1012V51.0282L0.414018 51.0171C14.867 48.8891 27.2986 46.7389 37.8638 42.9213C48.4201 39.1081 57.1189 33.6275 64.1218 24.8319L64.186 24.75L64.2502 24.8319V24.8341ZM89.1333 45.7225C79.1017 42.0975 70.8368 37.4362 64.1838 29.0946C57.5174 37.4362 49.2415 42.0975 39.2077 45.7225C29.165 49.3519 17.3622 51.3935 3.63317 53.4197C3.4959 77.9662 7.44788 100.048 17.0234 118.93C26.6012 137.821 41.8113 153.515 64.1815 165.28C86.5584 153.515 101.757 137.821 111.324 118.93C120.893 100.048 124.836 77.9662 124.699 53.4197C110.974 51.3935 99.1671 49.3519 89.1289 45.7225" fill="black"/><path fill-rule="evenodd" clip-rule="evenodd" d="M29.6299 77.2824C23.258 73.4006 20.1274 67.3885 19.9016 57.9132C24.9562 57.7227 27.8986 56.1239 29.6676 53.9561C31.4011 56.1239 34.0424 57.2267 39.2077 57.5301C38.8313 67.6144 36.0771 73.3607 29.6299 77.2802M29.1783 61.6422H28.8373V61.6798C28.8373 62.0098 28.8661 62.3442 28.917 62.6785C29.7694 62.714 30.7258 62.8668 31.4609 63.055C31.2218 62.1272 30.5044 61.6422 29.176 61.6422M27.7458 61.6422H27.1037V62.7826C27.3251 62.7427 27.562 62.7162 27.8122 62.6963C27.7679 62.3597 27.7458 62.0209 27.7458 61.6798V61.6422ZM27.1037 64.0957V65.9802H28.6248C28.4144 65.3048 28.2063 64.6294 28.0425 63.9474C27.6971 63.9762 27.3849 64.0249 27.1015 64.0957M29.7938 65.9448C30.841 65.7964 31.359 65.2273 31.5052 64.3393C30.8498 64.129 30.0395 63.9828 29.1915 63.9407C29.3421 64.5054 29.5281 65.0701 29.703 65.6392L29.7938 65.9448ZM27.8986 71.8417V74.2H28.1222C28.1598 73.8568 28.2749 73.7062 28.7266 73.5135C29.3288 73.2855 29.745 72.9046 30.0439 72.4108C30.4004 71.8306 30.5775 71.1508 30.6196 70.4267C30.9162 70.3868 31.1974 70.3337 31.4675 70.2673L31.6668 70.8474C31.7399 71.1176 31.8926 71.4586 31.7399 71.7221C31.6668 71.762 31.6269 71.8395 31.5162 71.8395V72.1428L33.6284 72.103V71.7974C33.4026 71.6092 33.252 71.4165 33.1391 71.2682C33.024 71.1176 32.9509 70.9249 32.8756 70.6968L32.59 69.8842C32.6343 69.8642 32.6808 69.8421 32.7251 69.8222C33.4402 69.4789 33.4402 69.5919 33.7812 69.9351L33.9693 69.8222L33.2896 67.6144L33.1037 67.7296C33.1037 67.9178 32.9885 68.1082 32.9509 68.1082C32.7406 68.3186 32.4616 68.4957 32.1517 68.6441L31.4387 66.6246C32.01 66.2238 32.3531 65.4775 32.5192 64.7711C32.8513 64.9726 33.0793 65.2162 33.0218 65.5196V65.5572L33.2099 65.6347L33.9671 63.3517L33.7789 63.2764C33.7037 63.3118 33.5509 63.4646 33.4026 63.5421C33.3251 63.5776 33.2122 63.5776 33.1015 63.5776C33.0749 63.5776 32.9177 63.5001 32.6277 63.3916C32.4749 61.7175 31.2771 60.4974 29.6299 60.4974H29.0122C29.1096 60.194 29.2535 59.9216 29.4417 59.7002C29.6299 59.5075 29.8181 59.3547 30.0816 59.2418C30.4956 59.0912 30.872 58.9761 31.0225 59.6227H31.2483V57.4526H31.0225C31.0225 57.7958 30.7214 57.8335 30.4934 57.8733C29.7008 57.9862 29.1008 58.3671 28.6469 58.8631C28.2484 59.3082 27.996 59.8773 27.8609 60.4974H25.7045V60.7631C25.8174 60.8384 25.8927 60.9159 25.9303 60.989C25.968 61.0665 26.0056 61.2193 26.0056 61.4097V63.0638C24.0927 63.7924 23.63 65.3779 23.63 66.6224C23.63 67.6476 24.0064 68.8678 25.1399 69.7048C25.3968 69.893 25.689 70.0414 26.0056 70.1632V71.2239C26.0056 71.4143 25.968 71.5693 25.9303 71.6446C25.8927 71.7177 25.7421 71.793 25.6292 71.835V72.1384H27.4779V71.835C27.3274 71.7952 27.1768 71.7177 27.1392 71.6446C27.1015 71.5693 27.1015 71.4121 27.1015 71.2239V70.4444C27.5355 70.513 27.9916 70.5396 28.4609 70.5396C28.8284 70.5396 29.1783 70.533 29.5059 70.5219C29.4617 70.9692 29.3532 71.3833 29.1384 71.7199C28.689 72.4462 28.2727 72.6721 28.12 71.8372H27.8964L27.8986 71.8417ZM29.4683 69.2863C29.3731 68.6153 29.207 67.9444 29.0189 67.2712H27.1037V69.1999C27.7214 69.2863 28.6093 69.3173 29.3288 69.2907C29.3731 69.2907 29.4174 69.2907 29.4683 69.2885M26.01 68.788V64.5298C25.1576 65.0501 24.8211 65.8473 24.841 66.6666C24.872 67.4284 25.2706 68.2677 26.01 68.788ZM31.0491 69.0338L30.4247 67.2003C30.334 67.2003 30.2432 67.2047 30.1591 67.2136C30.3318 67.8536 30.4801 68.5002 30.5642 69.1468C30.7236 69.1158 30.8852 69.0781 31.0513 69.0338" fill="#FDD800"/><path fill-rule="evenodd" clip-rule="evenodd" d="M29.3731 77.7115C26.1052 75.7252 23.6698 73.1831 22.0182 69.9258C20.3776 66.6861 19.5186 62.7401 19.4035 57.9282L19.3924 57.4322L19.8817 57.4145C22.3459 57.3214 24.2831 56.8896 25.8196 56.2209C27.3251 55.561 28.4454 54.6664 29.2823 53.6411L29.672 53.165L30.0572 53.6456C30.8675 54.6598 31.897 55.4259 33.3295 55.9751C34.8018 56.5442 36.7081 56.8852 39.2342 57.0336L39.7235 57.0601L39.7058 57.5517C39.5132 62.6692 38.7162 66.6905 37.1442 69.9413C35.5568 73.2208 33.1967 75.7031 29.889 77.7138L29.6299 77.2864L29.3731 77.7138V77.7115ZM22.9038 69.4674C24.4248 72.4657 26.6521 74.824 29.6299 76.6907C32.6343 74.8107 34.7907 72.5077 36.2498 69.4962C37.7088 66.4779 38.4726 62.7378 38.6918 58.0013C36.294 57.8308 34.4454 57.4765 32.9731 56.9118C31.5827 56.3781 30.5222 55.654 29.6653 54.7195C28.7842 55.6739 27.6595 56.5021 26.2115 57.1354C24.675 57.8064 22.7754 58.2581 20.413 58.391C20.568 62.8264 21.3872 66.4713 22.9038 69.4652" fill="black"/><path fill-rule="evenodd" clip-rule="evenodd" d="M25.6314 72.1449V71.8416C25.7466 71.8017 25.8949 71.7242 25.9325 71.6511C25.9702 71.5759 26.0078 71.4186 26.0078 71.2304V61.4162C26.0078 61.2258 25.9702 61.0752 25.9325 60.9955C25.8949 60.9224 25.8196 60.8427 25.7067 60.7696V60.5039H29.6277C31.3989 60.5039 32.6432 61.9123 32.6432 63.7746C32.6432 64.6094 32.3044 66.02 31.4365 66.6289L32.869 70.7012C32.9465 70.9293 33.0195 71.1219 33.1325 71.2725C33.2454 71.4208 33.3981 71.6135 33.6218 71.8017V72.1073L31.5096 72.1472V71.8438C31.6225 71.8438 31.6602 71.7685 31.7332 71.7264C31.886 71.4629 31.7332 71.1219 31.6579 70.8517L30.4137 67.2024C30.0749 67.2024 29.8115 67.2755 29.4705 67.2755H27.0949V71.2326C27.0949 71.4208 27.0949 71.5781 27.1325 71.6534C27.1702 71.7264 27.3207 71.8017 27.4713 71.8438V72.1472H25.6226L25.6314 72.1449ZM29.1783 61.6421H27.1038V65.9801H29.2159C30.914 65.9801 31.5517 65.1431 31.5517 63.7347C31.5162 62.3662 30.7989 61.6421 29.1783 61.6421Z" fill="black"/><path fill-rule="evenodd" clip-rule="evenodd" d="M33.1015 67.7315L33.2874 67.6163L33.9671 69.8241L33.7789 69.937C33.438 69.5938 33.438 69.4809 32.7229 69.8241C31.5162 70.3932 30.2698 70.546 28.4631 70.546C27.1812 70.546 25.9746 70.3201 25.1444 69.7112C24.013 68.8741 23.6366 67.654 23.6366 66.6287C23.6366 64.9547 24.4647 62.6738 28.5362 62.6738C29.6321 62.6738 30.9871 62.8997 31.855 63.1676C32.6476 63.3581 33.0616 63.5862 33.1037 63.5862C33.2122 63.5862 33.3273 63.5862 33.4048 63.5507C33.5531 63.4754 33.7059 63.3226 33.7812 63.285L33.9693 63.3603L33.2122 65.6433L33.024 65.5658V65.5282C33.1037 65.1097 32.6476 64.8063 32.1207 64.5782C31.2904 64.1995 30.0063 63.9316 28.6912 63.9316C25.8218 63.9316 24.8056 65.2624 24.841 66.6708C24.8787 67.5831 25.4432 68.6128 26.4993 69.069C26.9532 69.2572 28.3104 69.3347 29.3266 69.2949C30.0041 69.2949 32.0808 68.9893 32.9487 68.1168C32.9841 68.1168 33.1015 67.9264 33.1015 67.7381" fill="black"/><path fill-rule="evenodd" clip-rule="evenodd" d="M27.8986 71.8412H28.1222C28.2749 72.6783 28.6912 72.4502 29.1406 71.7239C29.4816 71.1924 29.5568 70.4705 29.517 69.7088C29.4041 68.4886 29.0277 67.2707 28.6513 66.055C28.1997 64.6068 27.7458 63.163 27.7458 61.6794C27.7458 60.6143 28.0093 59.589 28.6513 58.8649C29.103 58.3667 29.7052 57.988 30.4978 57.8751C30.7258 57.8352 31.0269 57.7998 31.0269 57.4565H31.2528V59.6244H31.0269C30.8764 58.9778 30.4978 59.093 30.086 59.2436C29.8225 59.3565 29.6321 59.5093 29.4461 59.7019C29.0299 60.1957 28.8417 60.9198 28.8417 61.6794C28.8417 62.9748 29.2934 64.3057 29.7074 65.6365C30.086 66.9297 30.5 68.2605 30.6129 69.5936C30.6882 70.6233 30.5376 71.6109 30.0461 72.4103C29.745 72.9041 29.3288 73.285 28.7266 73.5109C28.2749 73.7013 28.1598 73.8541 28.1222 74.1973H27.8986V71.839V71.8412Z" fill="black"/><path fill-rule="evenodd" clip-rule="evenodd" d="M74.1999 88.5421C74.1999 89.2286 74.1622 89.9128 74.1622 90.5971C74.1246 92.8071 74.0471 95.0104 74.4257 96.8771C74.6537 97.9799 74.9172 99.0848 75.4087 100.225C75.898 101.366 76.5379 102.508 77.5961 103.841C77.9725 104.371 78.4618 104.982 78.9888 105.591C79.7814 106.581 80.6116 107.533 81.1762 108.483C81.2891 108.673 81.402 108.864 81.5171 109.054C81.5548 109.054 81.5548 109.094 81.5548 109.094C82.0839 109.816 82.9142 110.427 83.8175 110.843C84.8337 111.337 85.965 111.565 87.0211 111.565C88.3008 111.565 89.5849 111.109 90.5259 110.232C91.3583 109.475 91.9229 108.37 91.9982 106.884C92.1864 103.46 90.1119 99.7315 87.7739 95.6215C86.6802 93.6419 85.5112 91.5891 84.5282 89.419C83.5872 87.3641 82.8699 85.3866 82.4559 83.294C82.0042 81.2413 81.8891 79.069 82.1171 76.7129C82.23 75.1916 82.6817 73.7832 83.3614 72.5631C84.0411 71.3075 84.9444 70.2801 86.0027 69.5958C86.492 69.2548 87.0565 69.0267 87.6233 68.8739C88.2278 68.6835 88.7923 68.606 89.4322 68.606C91.5443 68.606 93.5037 69.6711 94.9007 71.6131C96.1074 73.3647 96.9354 75.7983 96.973 78.8409C97.3118 79.2971 97.728 80.0588 98.0668 80.8959C98.4852 81.8879 98.8195 82.9907 99.0099 83.9761C99.1981 84.7378 99.2357 85.5018 99.2357 86.2591C99.2734 87.0209 99.2734 87.7029 99.4217 88.2764C99.4992 88.7326 99.7273 89.1887 99.9509 89.7224C100.367 90.7875 100.896 91.9656 100.896 93.5644C100.896 93.9453 100.482 94.1733 100.179 93.9453C99.8025 93.6795 99.5391 93.4869 99.3132 93.3363C98.9723 93.0684 98.6734 92.8403 97.9538 92.3465C97.7657 92.2335 97.4269 92.0409 97.0882 91.8526C97.0085 91.8128 96.973 91.7729 96.8956 91.7375C96.1428 91.319 95.2749 90.8252 94.8609 90.4443C94.3317 89.873 93.8425 89.1511 93.4661 88.3141C93.0498 87.3619 92.7487 86.2967 92.5606 85.3069C92.41 84.2794 92.3724 82.9884 92.4476 81.806C92.5229 80.5504 92.7111 79.3724 92.9768 78.7235C93.0498 78.4202 93.2026 78.0016 93.3532 77.5809C93.5015 77.1225 93.6897 76.6708 93.6897 76.4781C93.5768 75.413 93.0853 74.1575 92.2196 73.2806C91.5045 72.5963 90.5989 72.1402 89.5429 72.2154C88.5997 72.2907 87.9222 72.7447 87.4329 73.3559C86.8684 74.0379 86.565 74.8771 86.3016 75.7518C86.0359 76.6664 85.9606 77.7691 86.0005 78.9893C86.0735 80.3578 86.3016 81.8414 86.678 83.325C87.6588 87.3973 89.3923 90.2494 91.3141 93.2942C92.1465 94.6251 93.0498 96.0312 93.8779 97.5924C94.6705 99.0383 95.348 100.748 95.8018 102.502C96.2181 104.098 96.4417 105.735 96.3686 107.296C96.2933 110 95.3125 112.433 93.6543 114.105C92.0713 115.779 89.8462 116.846 87.2071 116.846C86.2263 116.882 85.2831 116.769 84.4175 116.541C83.7001 116.35 83.0625 116.047 82.4182 115.591C82.3452 115.857 82.2677 116.125 82.1924 116.39C82.0795 116.771 82.1193 117.267 82.1924 117.796C82.2677 118.445 82.4935 119.13 82.799 119.816C83.1356 120.691 83.5119 121.49 83.8175 122.099C84.1186 122.668 84.3466 123.053 84.495 123.202C84.7186 123.392 84.9466 123.623 85.1724 123.846C86.2285 124.911 87.1717 125.824 88.1503 126.284C88.3385 126.362 88.5665 126.397 88.7547 126.437C89.3945 126.59 89.886 126.703 89.886 127.425C89.886 127.883 89.8086 128.146 89.6956 128.452C89.6204 128.647 89.5451 128.835 89.5074 129.063C89.3945 129.557 89.3193 130.128 89.244 130.662C89.2086 131.233 89.1687 131.8 89.1687 132.259C89.1687 132.865 89.244 133.592 89.3945 134.353C89.5827 135.113 89.8085 135.873 89.9967 136.601C90.1119 136.94 90.2248 137.206 90.3753 137.547C90.6012 138.12 90.9045 138.804 91.1657 139.792V139.867C91.241 139.907 91.3916 139.985 91.5443 140.06C92.1089 140.326 92.7111 140.667 92.6735 141.318C92.638 141.847 92.1089 142.345 91.5443 142.877C91.241 143.142 90.9775 143.37 90.7894 143.596C90.7517 143.636 90.5635 143.789 90.4882 143.789C90.1871 143.789 89.8484 143.789 89.3569 143.829H88.9407C88.6019 143.789 87.8868 144.36 87.4728 144.741C87.3222 144.816 87.2093 144.932 87.1717 145.005V144.969C86.7178 145.348 85.6617 145.465 84.7186 145.273C84.0433 145.118 83.399 144.854 82.9496 144.358C82.7614 144.433 82.571 144.473 82.3474 144.511C82.0463 144.548 81.7806 144.588 81.4795 144.548C81.1009 144.548 80.6493 144.511 80.2729 144.396C80.1976 144.358 80.1223 144.32 80.0072 144.281C80.0072 144.358 80.0072 144.396 80.047 144.473C80.047 144.739 80.0825 145.005 80.16 145.273C80.1976 145.498 80.0072 145.766 79.819 145.844C79.3297 145.994 78.9135 145.919 78.4995 145.766C78.1585 145.611 77.895 145.423 77.7069 145.16C77.481 144.892 77.3305 144.626 77.2176 144.36C77.1799 144.168 77.1799 144.019 77.1799 143.866C77.0648 143.904 76.9917 144.055 76.8766 144.168C76.8013 144.207 76.7637 144.283 76.6884 144.36C76.3873 144.664 76.0862 144.779 75.7475 144.436L75.7098 144.398C75.2537 143.829 75.0678 143.145 75.0678 142.458C75.0301 141.583 75.256 140.669 75.484 140.328C75.5216 140.135 75.5969 139.987 75.6722 139.83C75.6722 139.794 75.6722 139.757 75.712 139.679C75.7873 139.413 75.9755 138.997 76.4272 138.539C76.8434 138.08 77.5209 137.586 78.6544 137.095C79.2943 136.827 80.7622 137.97 81.8935 137.854C82.0086 137.854 82.1238 137.817 82.2345 137.817V137.436C82.3474 133.744 82.3474 132.489 81.5194 131.309C81.143 130.813 80.6869 130.432 80.1998 130.093C79.6729 129.75 79.0685 129.482 78.4264 129.254C77.1843 128.837 76.0906 128.379 74.9947 127.887C73.9386 127.352 72.9224 126.782 71.8287 126.134C69.4531 124.69 68.0583 122.748 67.0774 120.542C66.8494 120.048 66.6634 119.515 66.473 118.981C65.9085 119.209 64.9299 119.59 63.7587 119.971C63.6834 120.048 63.6458 120.048 63.5705 120.086C62.6295 120.467 61.0067 121.61 59.7248 122.865C58.8192 123.817 58.1041 124.803 58.0665 125.602C57.9912 126.176 58.0665 126.707 58.1418 127.276C58.4052 128.84 58.6311 130.323 56.1049 132.263C55.9543 132.757 55.7661 133.251 55.578 133.707C55.2016 134.697 54.7831 135.687 54.8252 136.98C55.2768 137.478 55.465 138.082 55.4274 138.769C55.3543 139.34 55.0134 139.989 54.5617 140.483C54.0702 140.977 53.5079 141.322 52.9389 141.322C52.7507 141.358 52.4872 141.322 52.1861 141.282C51.7677 141.245 51.2806 141.205 51.1278 141.245C49.6201 141.927 48.4511 142.042 47.5832 141.966C46.7928 141.849 46.226 141.548 45.9227 141.282C45.5087 141.435 45.17 141.586 44.8666 141.623L44.7914 141.661C44.6784 141.661 44.6054 141.623 44.5279 141.586L43.8128 142.197C43.7375 142.274 43.4718 142.31 43.3589 142.274C42.9825 142.157 42.6438 141.893 42.3803 141.55C42.3427 141.475 42.2674 141.358 42.2298 141.247C42.1146 141.625 42.0394 141.931 41.5877 142.044C41.2468 142.119 40.6423 141.893 40.1154 141.36C39.739 141.019 39.4003 140.563 39.1368 139.951C39.1368 139.914 39.097 139.914 39.097 139.874C39.0593 139.799 39.0593 139.683 39.0239 139.61V139.533C38.9863 139.418 38.9088 139.34 38.8733 139.23C38.7959 139.079 38.7206 138.886 38.6077 138.696C38.3796 138.085 38.3066 137.48 38.3796 136.871C38.4549 136.3 38.6829 135.691 39.097 135.155C39.4379 134.661 40.0025 134.205 40.6445 133.864C41.2091 133.521 41.8888 133.328 42.5309 133.293C43.5869 133.293 44.415 133.824 45.2452 134.358C45.9227 134.774 46.6046 135.193 47.2423 135.117C47.5434 135.078 47.7714 135.002 47.9596 134.852C48.2231 134.697 48.4865 134.433 48.6371 134.205C48.8253 133.939 48.8253 133.561 48.8253 133.14V132.874C48.8253 132.267 48.8253 131.543 48.7898 130.859C48.7898 130.137 48.75 129.375 48.75 128.656C48.7123 127.929 48.7123 127.13 48.6747 126.406C48.6747 124.845 48.6371 123.363 48.3736 121.84C48.2253 121.078 48.0725 120.281 48.0371 119.559C47.9618 118.228 48.0747 116.818 48.4511 115.485C48.8275 114.116 49.5448 112.861 50.6784 111.683C53.6186 108.562 57.7676 108.294 62.5941 107.993C62.9306 107.993 63.234 107.951 63.5727 107.951C63.4598 107.725 63.3469 107.5 63.1963 107.267V107.229C62.2177 105.287 60.6325 103.728 58.8215 101.979C56.3329 99.4679 53.3551 96.5361 50.6784 91.3611C49.9965 91.2858 49.2813 91.0577 48.5286 90.7897C47.6983 90.4864 46.8327 90.0302 45.8895 89.4943C45.0615 89.0005 44.5323 88.5842 43.9678 88.1258C43.2881 87.5944 41.1405 85.9602 40.1597 85.9181C39.9715 85.9181 39.5951 86.2613 39.2187 86.5669C38.9553 86.8326 38.6497 87.1006 38.3863 87.2511C37.897 87.4792 37.5184 87.4416 37.2549 86.9079C37.142 86.7175 37.142 86.4518 37.1044 86.1484C36.9162 86.2237 36.6527 86.3765 36.3538 86.527C35.6741 86.9079 35.1096 87.136 34.5406 87.136C33.9383 87.136 33.4092 86.9478 32.8446 86.4518C32.1273 85.8804 31.41 85.0811 30.7701 84.2462C30.1679 83.4845 29.714 82.6452 29.4904 82.0008C29.227 81.2413 28.7355 79.6027 29.6388 79.1863C29.2978 78.5752 29.0388 77.5499 29.114 76.8258C29.4152 76.5579 29.9399 76.4449 30.3561 76.4095C30.2078 75.9511 29.9797 75.227 29.9022 74.7354C30.3162 74.3922 31.2594 74.2372 31.4852 74.2018C31.4476 74.1265 31.41 74.0888 31.41 74.0113C31.297 73.6304 31.1841 73.2496 31.1841 72.7934C32.3531 71.9187 34.9944 72.4147 35.1826 72.9838C35.5944 73.4024 35.8601 73.8984 36.0483 74.4697C36.2011 74.886 36.3118 75.3045 36.4645 75.7253C36.6903 76.6354 36.9538 77.4746 37.4077 77.8179L37.4807 77.8931C38.2003 78.6903 38.8003 78.9605 39.5176 79.3015C39.8187 79.4543 40.1198 79.6071 40.4586 79.7599C40.7641 79.9481 41.1759 80.1784 41.5921 80.3688C43.0644 81.166 44.457 81.9278 46.4563 83.1833C46.5692 83.1457 46.6445 83.0682 46.7198 82.9951C46.3057 81.3941 45.6637 79.2262 44.9862 77.2465C44.4194 75.65 43.8548 74.204 43.3257 73.2518C43.0999 72.7956 42.987 72.4922 42.9117 72.2619C42.7611 71.9187 42.7235 71.8036 42.1589 71.4648C42.046 71.3895 41.9331 71.312 41.7781 71.2743C41.4017 71.1238 41.1006 71.0086 41.0254 70.5126C40.9501 70.2446 41.0652 69.8283 41.2888 69.4851C41.3139 69.4585 41.339 69.4334 41.3641 69.4098C40.9124 69.1817 40.4984 68.8009 40.1198 68.3823C39.5176 67.656 38.953 66.7835 38.6121 65.7959C38.3841 65.1493 38.1981 64.4629 38.0829 63.8163C37.9346 62.9792 37.8948 62.182 37.8948 61.5709C37.8948 61.3804 38.1228 61.1524 38.311 61.1524C38.8778 61.1147 39.3671 61.1147 39.7811 61.19V61.1147C39.7058 60.8844 39.6305 60.581 39.5176 60.2777C39.4047 59.9721 39.6305 59.6289 39.9316 59.6289C40.3479 59.6687 40.6866 59.6289 41.0254 59.5934C41.2135 59.5934 41.4416 59.5536 41.6298 59.5536C41.6298 59.5137 41.6298 59.4783 41.5921 59.4384C41.477 59.1328 41.4017 58.7918 41.5169 58.566C41.5169 58.4907 41.7028 58.3356 41.7781 58.298C42.4202 58.0699 43.0246 58.0345 43.629 58.0699C43.7419 58.1098 43.8172 58.1098 43.9301 58.1098C43.9301 57.9171 44.0054 57.7267 44.0829 57.6138C44.1183 57.5363 44.3441 57.4233 44.4194 57.3857C45.0238 57.3857 45.5131 57.4233 45.967 57.5363C46.3788 57.6138 46.7972 57.7289 47.136 57.9592C47.5124 58.1851 47.891 58.4907 48.1921 58.794C48.9094 59.5956 49.4009 60.6209 49.5515 61.686C49.7396 62.7511 49.5891 63.8561 49.0599 64.8083C48.8319 65.1515 48.6083 65.4527 48.3072 65.7206C48.1943 65.8336 48.0814 65.9509 47.9684 66.0262C47.5899 66.3672 47.3264 66.6352 47.4017 67.2441C47.7028 68.0059 48.4577 69.2991 49.4009 70.7074C50.1913 71.9254 51.1322 73.2208 52.0776 74.2859C53.6252 72.9528 54.9447 71.7371 56.375 70.8226H56.4126C57.2429 70.2491 58.186 69.7553 59.1646 69.3744V69.339C59.127 69.2991 59.127 69.2637 59.0894 69.2637C59.0517 69.2637 58.9388 69.2991 58.7506 69.3766C58.3742 69.567 57.8849 69.835 57.0547 69.7575C56.8643 69.7575 56.7137 69.7198 56.5632 69.6822C56.1137 69.5294 55.8104 69.1884 55.6222 68.7699C55.4717 68.4288 55.434 68.0081 55.4717 67.6272C55.4717 67.3991 55.5093 67.1711 55.5846 66.9806C55.5447 66.7525 55.4717 66.5222 55.3588 66.3318C55.2082 65.9908 55.0554 65.6498 55.0554 65.229C55.0554 64.6577 55.6953 64.2038 56.2222 63.7831C56.2599 63.7454 56.3728 63.7078 56.4104 63.6701C56.5233 63.3645 56.6385 63.0612 56.789 62.8331C56.8289 62.7932 56.8643 62.7179 56.9019 62.6803C56.6008 62.5629 56.4104 62.2618 56.2599 61.9938C56.1093 61.6506 56.034 61.4225 55.9964 61.2321C55.9964 61.207 55.9839 61.1819 55.9588 61.1568C55.5824 60.9287 54.9425 60.5456 54.6392 59.2546C54.4887 58.3799 54.6392 57.771 54.7521 57.162C54.8296 56.7812 54.9027 56.4003 54.9027 56.0216C54.8274 55.5278 54.7123 55.1491 54.9757 54.7661C55.2038 54.4228 55.6554 54.1947 56.6717 54.2324C57.0503 54.2324 57.7698 54.0818 58.5226 53.8537C59.0871 53.7009 59.6893 53.4706 60.1056 53.2071C60.5949 52.5605 61.0864 52.1398 61.7284 51.7988C62.3683 51.4932 63.1609 51.3028 64.217 51.15C64.3299 51.15 64.5557 51.1123 64.7815 51.0769C65.273 51.037 65.8753 50.9241 66.442 50.8864C66.7033 50.3904 66.969 49.8966 67.3099 49.5157C67.7239 48.9444 68.211 48.6034 68.8553 48.568C69.8737 48.5281 70.9298 49.25 71.6471 50.2398C72.0235 50.7337 72.287 51.305 72.4375 51.8763C72.5172 52.2173 72.5504 52.5627 72.5504 52.9038C72.5881 52.9813 72.6279 53.0588 72.6279 53.134C72.7785 53.4751 73.0021 53.8958 73.3054 54.2767C73.5312 54.5778 73.8346 54.8103 74.1002 54.9609C74.6272 55.1536 75.1541 55.5699 75.608 56.026C76.1349 56.5199 76.6242 57.0912 76.9629 57.6625C77.191 58.0035 77.3039 58.3069 77.4168 58.6877C77.4921 58.918 77.5674 59.1439 77.6781 59.3343C77.8286 59.7174 78.0921 60.0584 78.4308 60.4017C78.8094 60.7449 79.2611 61.0881 79.6795 61.4292C80.2817 61.8853 80.6581 62.3791 80.9216 62.9128C81.4109 64.0156 81.4109 65.1183 81.4884 66.2986C81.526 66.9452 81.6765 67.6317 82.0153 68.1631C82.3562 68.6968 82.9208 69.1906 83.7865 69.4187C83.9393 69.4563 84.1274 69.6844 84.1274 69.8372C84.1274 69.9501 84.1274 70.0653 84.0876 70.1782C84.0522 70.4838 83.864 70.7916 83.5983 70.9798C83.3348 71.2079 82.9961 71.3208 82.6175 71.3208C82.6928 72.5387 82.4669 73.8319 82.2411 75.0875C82.0153 76.3807 81.7895 77.5211 81.2603 78.7014C81.0699 79.1221 80.2441 80.949 79.8655 81.0619C79.7902 83.0416 80.0935 84.9061 80.5076 85.8561C80.5828 86.0067 80.6957 86.1971 80.6227 86.31C80.5076 86.4628 80.2463 86.5005 80.0581 86.5005C79.4891 86.4628 78.9998 86.3875 78.433 86.0421C78.5482 86.31 78.6611 86.5381 78.774 86.7684C78.774 86.7684 78.8116 86.8813 78.8116 86.919C78.8493 87.0341 78.8116 87.1471 78.8116 87.2246C79.1127 87.4903 79.4891 87.6055 79.4891 87.6055C79.6419 87.683 79.9053 87.683 79.9053 87.8335C79.9408 87.9863 79.7548 88.2919 79.6419 88.4049C78.9998 88.9009 78.1696 89.129 77.3792 89.129C76.3231 89.1666 75.3047 88.8654 74.7777 88.5576H74.2132L74.1999 88.5421ZM43.919 140.939C43.7685 140.711 43.6157 140.56 43.5781 140.483C43.5028 140.483 43.4275 140.483 43.3523 140.518C43.2393 140.518 43.0888 140.56 42.9759 140.56C43.0135 140.711 43.0888 140.899 43.1619 141.014C43.2748 141.129 43.3523 141.247 43.463 141.282L43.9168 140.939H43.919ZM41.5434 140.368C41.4305 140.33 41.3176 140.29 41.167 140.253C40.9412 140.215 40.6778 140.253 40.4143 140.33C40.4896 140.483 40.6401 140.594 40.7154 140.709C41.0563 141.014 41.3176 141.167 41.3929 141.129C41.4682 141.09 41.3176 141.092 41.3552 141.014C41.3929 140.822 41.4305 140.594 41.5434 140.368ZM79.0264 145.315C79.2124 145.315 79.4028 145.352 79.478 145.009L79.1769 143.756L78.1961 143.641H77.7821C77.9703 144.553 78.3489 145.162 79.0264 145.315ZM76.7615 142.726L76.6862 141.623L76.0441 141.09C75.7076 141.661 75.6301 142.423 75.8559 143.41C76.0087 143.563 76.1969 143.869 76.3851 143.831L76.7615 142.726ZM67.8634 50.8355C68.0915 50.4148 68.4302 50.1889 68.7645 50.1114C69.0678 50.0738 69.3689 50.0738 69.5571 50.1114C69.9734 50.1889 70.3852 50.4923 70.6885 50.9108C70.9896 51.2917 71.2176 51.7877 71.2553 52.2793C71.366 53.0034 71.2553 53.5747 70.9896 54.0287C70.9143 54.1815 70.7992 54.3365 70.6885 54.4494C71.1379 54.1438 71.4058 53.7629 71.5564 53.3843C71.6671 53.0034 71.6316 52.5472 71.5564 52.0889C71.4058 51.6327 71.2176 51.1765 70.9165 50.7957C70.3497 50.0361 69.5571 49.4626 68.8796 49.4626C68.5409 49.5002 68.2376 49.7305 67.9741 50.0715C67.673 50.4524 67.4095 50.9839 67.1439 51.5153C67.1084 51.5928 66.8804 51.7833 66.7675 51.7833C66.1254 51.8187 65.4479 51.8962 64.8812 52.0114C64.7328 52.0114 64.5424 52.049 64.3166 52.049C63.338 52.2018 62.6583 52.3546 62.0937 52.6203C61.6022 52.8838 61.1882 53.2647 60.772 53.7984C60.7742 53.836 60.6591 53.9113 60.6591 53.9512C60.1344 54.2567 59.4547 54.5225 58.775 54.7107C57.9093 54.9786 57.079 55.1314 56.6274 55.1314C56.023 55.1314 55.7949 55.1669 55.7219 55.2421C55.7219 55.3197 55.7595 55.5832 55.7971 55.891V55.9286C55.8348 56.4601 55.7595 56.9162 55.6466 57.337C55.5337 57.8706 55.4208 58.3622 55.5337 59.0487C55.7241 59.961 56.1381 60.1913 56.3993 60.3441C56.6274 60.4969 56.8134 60.5722 56.8909 60.8778C56.9285 61.1435 57.0038 61.4114 57.1167 61.6373C57.1521 61.5997 57.192 61.5222 57.192 61.4491C57.3779 61.1059 57.5285 60.6873 57.7942 60.5323C58.3609 60.1913 59.0008 60.1913 59.6429 60.2688C60.172 60.3065 60.9624 60.8379 61.5292 61.4491C62.0539 62.016 62.4303 62.7024 62.3572 63.2361C62.2443 63.8451 61.7174 64.4518 61.0775 64.908C60.4753 65.3265 59.7181 65.6321 59.1536 65.4793C58.4384 65.3641 57.834 63.958 57.4953 63.4265C57.3824 63.5771 57.3071 63.8052 57.2318 64.0333C57.2318 64.0709 57.1189 64.2259 57.0813 64.2614C57.006 64.3389 56.8532 64.4142 56.7425 64.5293C56.4016 64.7928 55.9853 65.0984 55.9853 65.2113C55.9853 65.4394 56.1005 65.7051 56.1735 65.9376C56.3263 66.2787 56.4746 66.6197 56.4746 67.0006C56.4746 67.0404 56.4392 67.1534 56.4392 67.1534C56.3993 67.3061 56.3595 67.4567 56.3595 67.6472C56.3595 67.9151 56.3595 68.1808 56.4724 68.3735C56.5477 68.5639 56.6606 68.7145 56.8488 68.7544C56.8886 68.792 56.9993 68.792 57.0768 68.792C57.7189 68.8695 58.0576 68.6791 58.3587 68.5263C58.6598 68.4133 58.8502 68.2982 59.1868 68.3358C59.4879 68.3358 59.6384 68.4886 59.8288 68.7167C59.9041 68.792 60.017 68.9072 60.1299 69.0223C60.6546 68.8695 61.186 68.7566 61.7506 68.6414C62.5432 68.4532 63.3358 68.0302 64.0133 67.4611C64.7683 66.8168 65.4081 66.0174 65.8243 65.1781C66.1631 64.4562 66.3889 63.7321 66.3889 63.008C66.4642 62.1754 66.3889 61.4114 66.1631 60.7648C66.1254 60.5345 66.0125 60.2312 66.3889 60.1182C66.8405 59.9654 66.9557 60.2312 67.031 60.4615C67.2944 61.2609 67.4073 62.1333 67.3321 63.0855C67.2568 63.8827 67.031 64.7618 66.6524 65.5966C66.1609 66.509 65.4457 67.4589 64.6155 68.1454C63.8251 68.8695 62.8841 69.3611 61.9033 69.5538C61.3388 69.6689 60.7698 69.8217 60.2805 69.9723C60.2052 70.0121 60.0923 70.0498 60.0547 70.0121C58.848 70.4284 57.8296 70.9621 56.8488 71.5711C55.4163 72.521 54.1344 73.6991 52.5868 75.0698C52.6267 75.0322 52.702 75.0322 52.8149 75.0698C53.2289 75.2226 53.116 75.4861 53.0407 75.7164C52.8525 76.1349 52.702 76.5512 52.5868 76.8967C52.3234 77.6186 52.0975 78.1899 51.8717 78.7213C51.7987 79.0623 51.7588 79.3303 51.7588 79.596C51.7987 79.7488 51.7987 79.8994 51.8341 80.0522C52.7396 79.2528 53.1913 77.7315 53.5699 76.5512C53.6429 76.2501 53.758 75.9423 53.8732 75.6765C53.9462 75.4108 54.2097 75.2957 54.4377 75.3709C54.6259 75.4485 54.8141 75.7142 54.7012 75.9821C54.6281 76.2501 54.513 76.5158 54.4377 76.8568C54.3625 77.0074 54.3248 77.1624 54.2872 77.313C54.2518 77.6186 54.2119 77.9994 54.2119 78.3759C54.2119 78.9494 54.2518 79.5606 54.4377 80.1673C54.8141 79.937 55.3034 79.4809 55.5315 77.9972C55.5315 77.7669 55.5315 77.5411 55.5713 77.3108C55.5713 77.0052 55.6067 76.7018 55.6067 76.3984C55.6067 76.1726 55.8326 76.0176 56.0208 76.0176C56.2466 76.0176 56.51 76.1726 56.51 76.4383C56.51 77.0495 56.4724 77.5787 56.437 78.0371C56.3971 79.4454 56.5455 80.4353 58.2835 81.1948C58.1705 80.3954 58.1307 79.4078 58.2082 78.4932C58.3211 77.3883 58.5469 76.3608 58.9986 75.8692C59.1115 75.7164 59.375 75.6411 59.5654 75.7164C59.7536 75.7917 59.7912 76.0176 59.7912 76.2102C59.4879 78.5685 61.0731 82.9065 63.524 83.4778C63.338 82.5256 63.2229 81.4605 63.2229 80.3954C63.2229 79.1022 63.338 77.7691 63.6369 76.6265C63.6745 76.3984 63.938 76.2478 64.166 76.2855C64.3919 76.3209 64.5424 76.549 64.5424 76.7793C64.4671 77.3528 64.4671 77.8466 64.4671 78.3759C64.4671 80.7386 65.107 82.5256 66.1254 83.7834C67.0686 85.0013 68.3881 85.721 69.7077 85.8738C69.2184 85.0766 68.8044 84.1599 68.501 83.2099C67.9365 81.3099 67.6332 79.2926 67.7107 77.6562C67.7107 77.4281 67.7107 77.0849 68.1645 77.1225C68.6538 77.1225 68.6538 77.4658 68.6184 77.6961C68.5431 79.2173 68.8066 81.1594 69.3711 82.9087C69.9003 84.4322 70.5778 85.8007 71.5209 86.7131C72.3158 87.4726 73.104 87.59 74.0449 87.6276C73.3298 86.5625 72.8383 85.5328 72.5372 84.4677C72.1608 83.1745 72.0102 81.8038 72.0479 80.3223C72.0855 79.2926 72.2737 78.2674 72.577 77.2798C72.6523 77.0893 72.7652 76.7461 73.1814 76.8989C73.6353 77.0517 73.5202 77.3573 73.4449 77.5455C73.1814 78.4578 72.9888 79.41 72.9534 80.3223V81.3122C72.9888 81.197 73.104 81.1594 73.332 81.1217C73.8235 81.0819 73.8235 81.3122 73.8589 81.5402C74.1622 85.2693 76.6109 86.5625 77.7423 86.7131C77.4057 85.9912 77.1401 85.194 76.9519 84.3149C76.6884 83.2099 76.5379 82.0717 76.5379 81.0819C76.5379 80.2825 76.6131 79.4831 76.6884 78.7612C76.7637 77.9994 76.9165 77.355 77.1024 76.8192C77.1799 76.6265 77.2928 76.208 77.7069 76.3608C78.1585 76.5136 78.0478 76.9321 77.9703 77.1203C77.7821 77.5787 77.6692 78.1877 77.5939 78.8343C77.5187 79.4831 77.4412 80.2426 77.4788 80.9291C77.5164 80.5482 77.5939 80.205 77.7046 79.8241C77.7799 79.4432 77.8928 79.0623 77.9305 78.6084C77.9681 78.3404 78.0434 77.9596 78.4972 77.9994C78.9511 78.0747 78.8736 78.4932 78.836 78.7213C78.7607 79.2528 78.6854 79.6735 78.5725 80.0544C78.3467 80.9291 78.2692 81.693 78.4574 82.6031C78.6079 83.1368 79.4758 84.3149 78.9113 84.6581C78.5349 84.9238 78.3467 84.5828 78.2316 84.3946C77.9305 83.9362 77.7401 83.4402 77.6271 82.9464C77.6648 83.2475 77.7024 83.5177 77.7799 83.8211C78.1563 84.5828 78.5725 85.0013 78.9113 85.2294C79.0618 85.3424 79.25 85.4176 79.4006 85.4575C79.0596 84.3149 78.9113 82.6408 78.9489 80.9291C78.9843 79.2173 79.2876 77.4281 79.9253 76.0596C80.0426 75.867 80.3039 75.6411 80.4943 75.6788C80.6825 75.7186 80.833 76.0198 80.833 76.2501C80.833 76.5911 80.7976 77.0096 80.7201 77.5433C81.0212 76.6686 81.1718 75.7917 81.3223 74.9148C81.5858 73.5064 81.8514 72.1003 81.6256 70.8824C81.5858 70.7296 81.5858 70.579 81.6633 70.4639C81.8515 70.2734 82.2278 70.3864 82.5666 70.3864C82.7946 70.3864 82.9828 70.3111 83.1334 70.1583C82.2278 69.8173 81.6256 69.2836 81.247 68.637C80.7954 67.9505 80.6072 67.1157 80.5673 66.3141C80.5319 65.8203 80.5319 65.3641 80.4544 64.8703C80.3415 64.9855 80.191 65.0984 80.0426 65.2113C79.6264 65.5922 79.1725 65.8601 78.6478 66.1237C78.2692 66.3119 77.8153 65.8579 78.0434 65.4771C78.081 65.3619 78.1563 65.2091 78.2316 65.0585C78.1563 65.0585 78.1563 65.0962 78.1164 65.136C77.4035 65.7826 76.4958 65.9731 75.5172 66.0484C75.1763 66.0484 74.9128 65.7051 75.101 65.3619C75.1762 65.2091 75.2139 65.0585 75.3268 64.8681C74.574 65.7428 73.5556 66.5023 72.3866 66.9231C72.0102 67.0382 71.6693 66.6551 71.822 66.3119C71.9726 65.9332 72.1231 65.5125 72.1984 65.0962C71.5187 65.9709 70.5756 66.6551 69.6324 66.9983C69.2937 67.1135 68.9549 66.768 69.0678 66.427C69.3689 65.5125 69.5571 64.6777 69.5571 63.8008C69.4819 62.9239 69.2937 62.089 68.6915 61.1369C68.5785 60.9464 68.3904 60.6807 68.7645 60.4526C69.1431 60.1847 69.3313 60.4526 69.4464 60.6408C70.1261 61.7436 70.4272 62.7711 70.4272 63.7609C70.4649 64.4075 70.3874 65.0541 70.239 65.7007C70.6907 65.3973 71.1423 64.981 71.4833 64.5227C72.0124 63.8362 72.3888 63.039 72.4243 62.2396C72.4243 62.0492 72.6501 61.8189 72.8781 61.8189C73.1062 61.8189 73.2944 62.0093 73.332 62.2396C73.3696 62.9992 73.332 63.7985 73.2191 64.5957C73.1814 64.9412 73.1062 65.2822 72.991 65.6254C73.6707 65.2069 74.2353 64.7131 74.6892 64.1816C75.3667 63.3446 75.7452 62.4699 75.5947 61.8587C75.5548 61.6307 75.7076 61.4026 75.8958 61.3627C76.1216 61.2874 76.4227 61.4026 76.498 61.5908C76.6862 62.1245 76.726 62.8087 76.6109 63.5306C76.5356 64.0244 76.4227 64.5204 76.1991 65.0143C76.7261 64.939 77.1401 64.7485 77.5164 64.4429C78.0057 63.9868 78.3821 63.1099 78.4198 61.5886C78.2316 61.3982 78.0057 61.2077 77.7799 61.0173C77.3637 60.5988 77.0271 60.1802 76.7969 59.6864C76.684 59.4185 76.6087 59.1926 76.5334 58.9623C76.4205 58.6567 76.3452 58.3534 76.1571 58.0876C75.8559 57.6315 75.4419 57.0956 74.9504 56.6394C74.574 56.2608 74.1224 55.953 73.7062 55.7249C73.2921 55.5721 72.9158 55.2311 72.5748 54.8148C72.422 54.6243 72.2737 54.4317 72.1608 54.2036C71.822 54.7749 71.2575 55.2709 70.3874 55.5721C70.1992 55.6496 69.9734 55.7249 69.8228 55.3086C69.7497 55.1558 69.7497 55.0406 69.7874 54.9676C69.7497 54.9676 69.7099 55.0052 69.6745 55.0052C69.4464 55.0406 69.2206 55.1226 69.1077 54.6642C68.9948 54.2058 69.183 54.1682 69.4088 54.0907C69.7874 54.0154 70.0531 53.8272 70.2014 53.5614C70.3896 53.2558 70.4294 52.875 70.3542 52.4188C70.3165 52.0756 70.166 51.7323 69.9778 51.4666C69.7896 51.2009 69.6014 51.0503 69.411 51.0105C69.2981 51.0105 69.1099 50.9706 68.9593 51.0105C68.8841 51.0503 68.7689 51.0857 68.6959 51.2385C68.583 51.429 68.4701 51.6571 68.0937 51.429C67.6774 51.2385 67.7527 51.0503 67.8656 50.82M51.3846 74.9214C50.4038 73.781 49.423 72.4502 48.6326 71.1946C47.6142 69.711 46.8238 68.3381 46.4851 67.5409V67.4279C46.3345 66.2477 46.7485 65.8668 47.3884 65.3331C47.4637 65.2578 47.5766 65.1449 47.6895 65.0674C47.9175 64.8393 48.1057 64.609 48.2186 64.3433C48.6703 63.5815 48.7832 62.7069 48.6703 61.8322C48.5197 60.9221 48.1057 60.0452 47.5013 59.434C47.2755 59.1683 46.9744 58.9402 46.6733 58.752C46.4098 58.5992 46.1065 58.4862 45.7677 58.4109C45.6548 58.4109 45.3914 58.3334 45.4268 58.6368C46.3677 59.1306 47.2002 59.93 47.5766 60.9951C47.8777 61.872 47.84 62.9349 47.3131 64.1551C47.2378 64.3787 47.1625 64.5714 46.7485 64.3831C46.2947 64.1949 46.4098 64.0001 46.4851 63.7742C46.9367 62.7844 46.9367 61.9495 46.7109 61.3007C46.4474 60.4659 45.7677 59.8569 45.015 59.4761C44.5235 59.2103 44.032 59.0575 43.5405 59.0199C43.0135 58.9424 42.7877 59.1328 42.6748 59.6289H42.7124C43.7309 59.8592 44.6342 60.353 45.1655 61.3406C45.6172 62.1422 45.8054 63.2051 45.6172 64.6932C45.5818 64.919 45.5818 65.1493 45.0925 65.0718C44.6762 65.0342 44.6762 64.8039 44.7139 64.578C44.9043 63.3225 44.7139 62.4079 44.3751 61.8012C43.9987 61.0793 43.3191 60.6984 42.5264 60.5434C42.0371 60.4305 41.5833 60.4703 41.0563 60.508C40.8283 60.5434 40.7154 61.2697 40.753 61.4602C41.5456 61.8012 42.2253 62.295 42.677 62.9416C43.5427 64.082 43.9213 65.528 44.1869 66.7083C44.2622 66.9386 44.2999 67.1666 43.846 67.2796C43.3943 67.3969 43.3567 67.1666 43.3168 66.9386C43.0556 65.8336 42.6748 64.5027 41.9597 63.5129C41.508 62.9017 40.8682 62.4478 40.0357 62.2197C39.7722 62.1444 38.9043 62.7534 38.9043 63.0944C38.9043 63.2848 38.9442 63.4753 38.9818 63.6657C39.0925 64.2724 39.2077 64.8836 39.4335 65.4527C39.7722 66.3672 40.2261 67.129 40.7907 67.7734C41.28 68.3447 41.8467 68.7256 42.3737 68.916C42.7877 69.0289 42.7877 69.6755 42.4091 69.7907C42.2231 69.8682 42.108 69.9435 42.0327 70.0586C41.9198 70.1716 41.8822 70.2867 41.9198 70.3244C41.9198 70.362 41.9951 70.362 42.108 70.3996C42.2608 70.4772 42.449 70.5524 42.6371 70.6676C43.4652 71.1614 43.5405 71.3917 43.7309 71.9608C43.8438 72.1911 43.919 72.4568 44.1449 72.8377C44.6342 73.7899 45.2386 75.309 45.843 76.9454C46.4474 78.7745 47.0496 80.7519 47.4637 82.3131C47.8799 81.9322 48.181 81.5491 48.409 81.2856C48.4843 81.2081 48.5219 81.0951 48.5574 81.0176C48.5839 80.9925 48.609 80.9675 48.6326 80.9424C48.6326 79.4964 48.8961 78.3892 49.4253 77.4038C49.8791 76.4914 50.5544 75.7319 51.3869 74.9303M49.3123 81.6177C49.2371 81.6554 49.1596 81.7329 49.1242 81.8458C48.7456 82.302 48.2186 82.9508 47.3131 83.6727C47.3884 83.6727 47.426 83.6328 47.4637 83.6328C48.8208 83.252 50.2179 83.0615 51.2363 83.252C51.4621 83.2918 51.8009 83.3317 51.7256 83.7834C51.6503 84.244 51.3116 84.2041 51.0858 84.1643C50.1802 84.0159 48.9337 84.1643 47.7293 84.5075C46.5227 84.8884 45.3914 85.4176 44.6364 86.1063C44.4504 86.2569 44.1847 86.485 43.8836 86.144C43.5825 85.8007 43.846 85.5328 44.0342 85.4176C44.6032 84.8884 45.3559 84.4677 46.1817 84.1266C44.0718 82.7559 42.6748 81.9964 41.167 81.197C40.8261 81.0066 40.4896 80.8538 39.9981 80.5881C39.697 80.3976 39.3959 80.2825 39.1302 80.1319C38.3021 79.751 37.6601 79.4454 36.8298 78.5331C36.1523 78.0016 35.849 77.0096 35.5479 75.9843C35.4726 75.5658 35.3199 75.1473 35.207 74.8041C35.0188 74.3479 34.8306 73.9294 34.5273 73.626C34.1509 73.2451 33.6992 73.2075 33.2099 73.2075C32.4926 73.4334 32.7561 73.3603 32.4173 74.1597C33.0594 74.1973 33.7391 74.3878 34.266 74.8041C34.7199 75.1473 34.9834 75.6433 35.0564 76.0596C35.0963 76.2501 35.1715 76.6287 34.68 76.7062C34.266 76.8192 34.2284 76.4405 34.1509 76.2102C34.1155 76.0198 33.9627 75.754 33.6992 75.526C33.4734 75.3377 33.0948 75.1827 32.6432 75.1052C32.4173 75.0698 32.1915 75.0698 31.9258 75.1052C31.359 75.413 31.3967 75.526 31.3967 76.5158C32.9066 76.8967 33.4734 77.6961 34.0003 78.3781C34.2638 78.7235 34.9435 79.2926 34.5273 79.7112C34.038 80.1695 33.511 79.255 33.2852 78.9516C32.7937 78.305 32.2668 77.5433 30.7192 77.313C30.0041 77.313 30.3805 78.6815 30.4181 78.7612C30.7568 78.987 30.7945 79.1797 31.2085 79.3701C31.5849 79.5606 32.1539 79.7887 33.0195 80.3578C33.2454 80.4707 33.5487 80.6633 33.3229 81.0442C33.0594 81.4273 32.7539 81.2723 32.528 81.1572C31.7376 80.6257 31.2085 80.3954 30.8697 80.2448C30.1126 80.5106 30.2277 81.3498 30.3406 81.693C30.5288 82.2621 30.945 82.984 31.4697 83.6705C32.0742 84.4677 32.7516 85.194 33.3937 85.7653C33.7723 86.0687 34.1487 86.2215 34.5251 86.2215C34.9037 86.2192 35.3177 86.031 35.8822 85.7254C36.2985 85.4974 36.6748 85.2715 37.0158 85.1962C38.0719 84.9659 37.959 85.69 38.0342 86.3743C38.187 86.2591 38.4106 86.1085 38.5988 85.8782C39.128 85.4619 39.6172 84.9659 40.184 85.0035C41.4283 85.0035 43.5781 86.6754 44.519 87.4017C45.0482 87.818 45.5751 88.2366 46.3655 88.6927C47.198 89.1887 48.0636 89.6449 48.8563 89.9483C49.6489 90.2539 50.4016 90.4044 51.119 90.4443C52.7795 90.5572 54.3625 90.1387 56.3971 89.5674C56.5477 89.4899 56.7381 89.4545 56.9263 89.4146C57.0016 89.3792 57.2274 89.4545 57.3403 89.4899C57.7189 89.8331 58.2458 90.2517 58.8104 90.5572C59.375 90.8252 59.9794 91.0533 60.5838 91.0134C61.3764 90.9758 62.1668 90.3292 62.6583 89.4899C62.9971 88.9607 63.2605 88.3517 63.3734 87.7405C63.5616 86.9035 63.5616 86.4473 63.2605 85.6856C62.9971 85.1143 62.8089 84.5828 62.6583 84.1266C60.9225 83.2896 59.6406 80.9689 59.1115 78.8365C59.0384 79.9415 59.1115 81.1217 59.2997 81.8038C59.375 82.147 59.0384 82.488 58.6975 82.3751C56.9263 81.7262 56.096 81.042 55.7573 80.205C55.4163 80.6988 55.0023 80.8892 54.699 81.042C54.6259 81.0797 54.5507 81.1549 54.5108 81.1549C54.285 81.383 53.9086 81.3077 53.7979 81.0044C53.5699 80.5083 53.4569 80.0145 53.3795 79.5606C53.0031 80.205 52.5138 80.7763 51.8717 81.1572C51.6835 81.2723 51.3448 81.1948 51.2341 80.9667C51.119 80.7763 51.0459 80.5858 51.0061 80.3578C50.5898 80.8516 50.1005 81.2324 49.4629 81.5004C49.423 81.5358 49.3876 81.5735 49.3101 81.6133M63.752 84.4721C64.8081 87.2135 66.7343 91.7021 68.3926 95.5463C69.07 97.2203 69.752 98.7416 70.3165 100.11C70.4294 100.34 70.5047 100.529 70.0885 100.721C69.6745 100.872 69.5992 100.681 69.4841 100.453C69.2604 99.8865 68.9195 99.1601 68.5431 98.2855V98.3231C68.2796 98.5135 67.9387 98.7416 67.7527 98.7793C67.5247 98.8191 67.1859 98.9321 67.1129 98.4737C67.0376 98.0574 67.3763 97.9422 67.6022 97.8669C67.8302 97.7518 68.0538 97.5614 68.1667 97.4484C68.0184 96.99 67.7904 96.5339 67.6022 96.0755C67.3011 96.4586 66.8472 96.762 66.3955 97.0277C65.8686 97.2934 65.304 97.4861 64.7373 97.5591C64.5092 97.5968 64.1727 97.7496 64.0952 97.258C63.9845 96.835 64.321 96.6867 64.5491 96.6468C65.076 96.5715 65.5653 96.4187 65.9815 96.2305C66.3601 96.0024 67 95.544 67.1882 95.1277C66.2074 92.765 65.1513 90.2959 64.2457 88.1258C64.0952 88.7724 63.7941 89.419 63.4553 89.9904C62.7779 91.0577 61.7572 91.8172 60.6657 91.9346C59.8355 91.97 59.0805 91.7043 58.403 91.3611C57.8362 91.0577 57.3469 90.7145 56.9329 90.3712C56.8554 90.4089 56.7447 90.4089 56.6318 90.4487C54.7809 90.9802 53.2732 91.3987 51.7278 91.3987C54.2562 96.1929 57.0813 98.9343 59.4591 101.293C61.3454 103.119 62.9638 104.718 64.0199 106.811H63.9845C65.1136 108.753 65.5276 110.806 65.9815 112.898C65.9815 112.976 66.0192 113.049 66.0944 113.394C66.5461 115.79 67.0398 118.149 67.9409 120.203C68.8088 122.221 70.0907 124.01 72.318 125.339C73.3342 125.985 74.3526 126.557 75.4087 127.053C76.4249 127.549 77.481 128.005 78.7253 128.386C79.4404 128.612 80.0825 128.917 80.6847 129.3C81.2891 129.719 81.816 130.213 82.2323 130.782C83.2529 132.19 83.2529 133.561 83.1378 137.443V137.861C83.8175 137.976 83.8551 138.087 84.4551 137.976C84.6832 137.899 84.9112 137.823 85.1724 137.823C85.4359 137.861 85.7414 137.936 86.0049 138.054C86.2285 138.167 86.4942 138.355 86.6425 138.547C86.7953 138.738 87.0211 139.006 86.6824 139.269C86.3436 139.573 86.078 139.307 85.9296 139.117C85.8544 139.041 85.7414 138.964 85.6263 138.889C85.4758 138.813 85.3252 138.773 85.1747 138.773C85.0241 138.773 84.8359 138.813 84.6854 138.851C83.7798 139.081 83.5917 138.813 82.8743 138.736C82.6109 138.736 82.3097 138.736 82.0064 138.773C81.1009 138.889 79.0286 137.976 79.0286 137.976C78.008 138.395 77.408 138.813 77.0648 139.192C76.7637 139.535 76.6508 139.836 76.5379 140.029C76.5379 140.069 76.5002 140.106 76.5002 140.184C76.4626 140.297 76.4249 140.374 76.3895 140.41C76.3895 140.45 76.4249 140.487 76.4249 140.487C76.4648 140.6 76.5379 140.755 76.6884 140.868C76.7637 140.943 76.8035 140.981 76.8766 141.021C76.9917 140.868 77.0648 140.678 77.1799 140.487C77.481 140.029 77.9327 139.688 78.422 139.422C79.2146 139.081 80.2352 139.006 81.3644 139.46C81.5902 139.537 81.8913 139.688 81.743 140.106C81.5902 140.523 81.2515 140.41 81.0256 140.295C80.16 139.954 79.405 139.993 78.8006 140.257C78.4596 140.45 78.1607 140.713 77.9327 141.019C77.7445 141.324 77.5939 141.663 77.5939 142.006C77.5563 142.345 77.5939 142.691 77.7423 142.959C77.7821 142.996 77.8176 143.074 77.8176 143.151C78.1187 143.111 78.3821 143.074 78.6854 143.074H79.2876C79.4382 142.693 79.7017 142.389 80.1179 142.119C80.5319 141.854 81.0965 141.663 81.7009 141.663C82.0396 141.663 82.416 141.701 82.7968 141.818C83.0204 141.896 83.2861 141.971 83.1732 142.425C83.0603 142.843 82.757 142.768 82.5334 142.691C82.2677 142.613 82.0042 142.578 81.7408 142.578C81.2869 142.613 80.9105 142.728 80.6094 142.916C80.3814 143.071 80.2684 143.182 80.1932 143.375C80.2684 143.412 80.3814 143.45 80.5341 143.488C80.8352 143.603 81.2138 143.643 81.5149 143.643C81.7031 143.643 81.9666 143.643 82.1924 143.603C82.4182 143.565 82.6463 143.488 82.9097 143.415C83.2861 143.262 83.6625 143.074 83.9636 142.919C84.2293 142.806 84.4529 142.653 84.6433 142.615C84.8315 142.538 85.1348 142.427 85.323 142.846C85.4735 143.264 85.1348 143.417 84.9466 143.49C84.8337 143.532 84.6455 143.605 84.4175 143.758C84.2293 143.796 84.0765 143.911 83.8883 143.984C84.1916 144.174 84.5282 144.287 84.8713 144.365C85.6241 144.517 86.3414 144.48 86.6049 144.252L86.6403 144.212C86.6802 144.172 86.7554 144.097 86.8684 144.021C87.3953 143.563 88.2632 142.881 88.9783 142.881H90.2226C90.4108 142.651 90.6742 142.423 90.9001 142.197C91.3141 141.816 91.7657 141.435 91.7657 141.245C91.7657 141.205 91.4292 141.017 91.1635 140.899C90.9001 140.751 90.6366 140.636 90.4838 140.483C90.2204 140.217 89.8041 140.064 89.2772 140.064C88.8233 140.102 88.261 140.29 87.6942 140.709C87.5414 140.824 87.2049 141.092 86.9414 140.709C86.6757 140.33 86.9791 140.064 87.2049 139.949C87.8824 139.416 88.5975 139.187 89.2396 139.15C89.5407 139.15 89.7665 139.187 89.9923 139.227V139.187C89.917 139.001 89.844 138.884 89.7288 138.769C89.503 138.576 89.2396 138.466 88.9362 138.426C88.6351 138.39 88.334 138.426 87.9953 138.466C87.7695 138.466 87.5436 138.505 87.506 138.049C87.4684 137.591 87.6942 137.591 87.92 137.551C88.2964 137.513 88.6728 137.478 89.089 137.513C89.1643 137.551 89.2772 137.551 89.3525 137.591C89.2772 137.325 89.2041 137.097 89.1266 136.869C88.8986 136.147 88.6706 135.345 88.5222 134.548C88.4492 134.245 88.4093 133.977 88.3318 133.709C88.2942 133.899 88.2189 134.32 87.7673 134.245C87.3554 134.13 87.4285 133.749 87.4661 133.521C87.692 132.303 87.5414 130.974 87.0521 129.829C86.5983 128.804 85.8809 127.967 84.9023 127.549C84.7119 127.433 84.3754 127.281 84.5636 126.864C84.7518 126.446 85.0529 126.599 85.2787 126.674C86.4853 127.247 87.3554 128.233 87.8802 129.451C88.0683 129.909 88.2189 130.328 88.2942 130.821C88.3318 130.746 88.3318 130.671 88.3318 130.593C88.4071 129.984 88.5222 129.375 88.5953 128.879C88.6706 128.578 88.748 128.348 88.7857 128.158C88.8986 127.929 88.9739 127.739 88.9739 127.436C88.9739 127.398 88.7857 127.398 88.5599 127.358C88.3318 127.318 88.0307 127.245 87.7673 127.092C86.6337 126.599 85.6551 125.644 84.5215 124.508C84.2979 124.316 84.1075 124.088 83.8463 123.859C83.6204 123.636 83.3548 123.177 82.9784 122.529C82.6751 121.882 82.2987 121.083 81.9223 120.172C81.6212 119.446 81.3932 118.649 81.2802 117.963C81.1673 117.314 81.1673 116.705 81.3157 116.173V116.138C81.8072 114.614 81.8802 113.281 81.6943 112.179C81.5061 111.036 81.0146 109.973 80.3747 108.948C79.8854 108.108 79.0552 107.159 78.2626 106.166C77.8109 105.595 77.3216 105.026 76.8301 104.377C75.774 103.009 75.0567 101.791 74.5674 100.575C74.0383 99.3949 73.7372 98.2522 73.5113 97.0742C73.1349 95.0569 73.1726 92.8137 73.2479 90.5661C73.2479 89.8818 73.2479 89.1976 73.2833 88.5134C72.453 88.4359 71.7003 88.1723 70.87 87.3707C70.7195 87.2179 70.5313 87.0297 70.3807 86.8393H70.2678C70.042 86.8393 69.8538 86.8393 69.6258 86.7994C68.0428 86.609 66.5328 85.8096 65.4037 84.3636C64.9498 83.8299 64.5734 83.1855 64.2701 82.4238C64.31 82.9552 64.4229 83.449 64.5358 83.9074C64.6088 84.1732 64.4229 84.4787 64.1195 84.4787H63.741L63.752 84.4721ZM75.2537 87.7848C75.7098 88.0129 76.498 88.2033 77.3305 88.2033C77.6692 88.2033 78.0456 88.1657 78.3467 88.0505C78.2338 87.9354 78.0456 87.8225 77.9327 87.6697C76.6884 87.6342 73.7084 86.3388 73.0309 82.4194C73.1062 83.0305 73.2191 83.6373 73.4073 84.2086C73.7836 85.4243 74.3881 86.5691 75.256 87.787M80.233 63.7343C80.0803 63.2405 79.7791 62.7821 79.3629 62.3658C79.3629 62.8951 79.3629 63.5063 79.2876 64.1152C79.2876 64.3056 79.25 64.5359 79.2124 64.7242C79.5932 64.4584 79.9673 64.1152 80.233 63.7343ZM51.0083 78.4224C51.0481 78.3094 51.119 78.1168 51.161 78.0039C51.1987 77.9286 51.2363 77.8134 51.3116 77.7736C51.4245 77.3927 51.5728 77.0118 51.7256 76.5933C51.8385 76.2124 52.0267 75.8338 52.1773 75.4507C51.3116 76.2124 50.6717 76.972 50.2533 77.8112C49.8393 78.5707 49.6134 79.3724 49.5382 80.3976C50.178 80.0167 50.592 79.3701 51.0083 78.4202M82.4182 111.109C82.4935 111.415 82.5688 111.716 82.6064 112.021C82.757 112.823 82.757 113.658 82.6064 114.608C83.2507 115.104 83.9282 115.447 84.6433 115.675C85.4337 115.903 86.3016 115.941 87.2071 115.941C89.5827 115.903 91.5443 114.989 92.9768 113.505C94.4823 111.984 95.3878 109.776 95.4631 107.302C95.5007 105.779 95.3103 104.26 94.9317 102.736C94.4823 101.062 93.8425 99.4259 93.0853 98.0574C92.2572 96.4962 91.3893 95.1277 90.5613 93.7969C88.5997 90.6768 86.7909 87.745 85.7724 83.5598C85.3961 81.9986 85.1702 80.4397 85.095 79.0313C85.0573 77.7381 85.1326 76.5202 85.4337 75.5304C85.6972 74.5406 86.0758 73.5529 86.7156 72.789C87.3599 71.9519 88.2255 71.3828 89.5074 71.3053C90.8646 71.1924 91.996 71.7637 92.8616 72.6384C93.8801 73.7035 94.4845 75.1495 94.5974 76.4051C94.6351 76.7859 94.4092 77.3949 94.179 77.9286C94.0705 78.3095 93.9177 78.6881 93.9177 78.8409C93.9177 78.8785 93.8424 78.9959 93.8424 79.0313C93.6166 79.565 93.424 80.6301 93.3532 81.8458C93.2779 82.9862 93.3133 84.244 93.4661 85.1563C93.5414 85.5372 93.6166 85.9181 93.7295 86.299C93.9177 84.9659 94.3694 83.7126 94.7059 83.1789C94.821 82.9885 95.0469 82.5699 95.4232 82.8334C95.7996 83.0615 95.6114 83.4823 95.4609 83.6727C95.1598 84.1665 94.7037 85.4974 94.593 86.8703C94.5155 87.745 94.6306 88.6219 95.0447 89.2308C95.1199 89.3039 95.1576 89.3438 95.1576 89.419C95.2705 89.5342 95.3834 89.687 95.4963 89.7623C95.5339 89.7999 95.6092 89.8752 95.6845 89.9549C95.6092 89.687 95.5339 89.419 95.4963 89.1533C95.2705 87.7848 95.4587 86.2237 95.6845 85.2737C95.7221 85.0833 95.8373 84.6271 96.2889 84.74C96.7406 84.8552 96.6254 85.2737 96.59 85.4996C96.3642 86.3765 96.2136 87.745 96.4018 89.0005C96.5524 89.7977 96.8535 90.5595 97.3782 90.978C97.4181 91.0156 97.4579 91.0156 97.4933 91.0555C97.5664 91.0931 97.6062 91.0931 97.6417 91.1285C97.531 90.865 97.4181 90.6347 97.3428 90.369C97.0018 89.1533 96.8889 87.6675 97.2299 85.8782C97.2675 85.6502 97.3428 85.1962 97.7967 85.2715C98.2461 85.3866 98.173 85.8029 98.1354 86.031C97.8343 87.7051 97.9096 89.0005 98.2483 90.0656C98.5538 91.1286 99.1538 91.9279 99.8712 92.5768C99.8712 92.5768 99.8712 92.6144 99.9066 92.6144C99.756 91.6246 99.4151 90.8274 99.1162 90.1033C98.8527 89.532 98.6225 88.9983 98.5096 88.4691C98.359 87.8202 98.3214 87.0585 98.3214 86.299C98.2837 85.5771 98.2837 84.8153 98.1332 84.2086C97.945 83.2542 97.604 82.1913 97.2277 81.2789C96.8867 80.402 96.4749 79.6802 96.1716 79.3369C96.1339 79.2993 96.0564 79.069 96.0564 79.0336C96.021 76.1061 95.3037 73.7832 94.1347 72.1468C92.9281 70.4727 91.2299 69.5205 89.4211 69.5604C88.892 69.5604 88.365 69.598 87.8381 69.7508C87.3864 69.9036 86.9348 70.0941 86.4809 70.3598C85.5732 70.971 84.7474 71.8811 84.1053 73.0237C83.5407 74.1265 83.1245 75.382 82.9762 76.7904C82.788 79.0734 82.9363 81.1306 83.3525 83.108C83.7289 85.1253 84.4418 87.0629 85.3518 89.0426C86.3304 91.2149 87.4617 93.2278 88.5554 95.1698C90.9665 99.4303 93.1163 103.274 92.8904 106.928C92.8152 108.675 92.1377 109.971 91.1547 110.923C90.0255 111.99 88.5156 112.482 87.0078 112.482C85.8389 112.482 84.557 112.216 83.4256 111.685C83.0846 111.532 82.7083 111.339 82.405 111.113M66.2051 118.109C66.1675 117.843 66.09 117.577 66.0169 117.307C65.5631 117.274 65.2243 117.194 64.9232 117.044C64.507 116.813 64.2435 116.474 64.2081 116.016C64.1328 115.445 64.4716 114.723 64.7373 114.074C64.8856 113.731 65.0384 113.427 65.1136 113.199C65.1136 113.122 65.0738 113.086 65.0738 113.047C64.7727 111.64 64.5092 110.23 63.9446 108.861C63.5284 108.861 63.1144 108.901 62.6251 108.939C57.9868 109.202 54.0259 109.47 51.3138 112.325C50.2954 113.35 49.6931 114.532 49.3146 115.713C48.9736 116.966 48.8607 118.261 48.9736 119.517C49.0112 120.505 49.1994 121.457 49.3898 122.447C49.6157 123.667 50.105 124.349 50.933 125.379C51.0858 125.531 51.1987 125.682 51.2739 125.759C51.3869 125.948 51.575 126.178 51.2363 126.444C50.8201 126.709 50.6319 126.481 50.519 126.291C50.2179 125.87 49.8791 125.491 49.578 125.111C49.578 125.491 49.6157 125.948 49.6157 126.364C49.6157 127.088 49.6157 127.89 49.6533 128.654C49.6909 129.333 49.6909 130.097 49.7286 130.819C49.7286 131.543 49.7662 132.232 49.7286 132.874V133.14C49.7286 133.711 49.7662 134.245 49.3898 134.776C49.1219 135.08 48.8208 135.388 48.4445 135.651C48.1434 135.846 47.767 135.994 47.3507 136.034C46.3677 136.109 45.5795 135.651 44.7847 135.12C44.0718 134.699 43.3523 134.245 42.5619 134.245C42.0327 134.245 41.5058 134.435 41.0541 134.661C40.525 134.965 40.1088 135.308 39.8099 135.726C39.5088 136.107 39.356 136.526 39.2829 136.982C39.2453 137.099 39.2453 137.21 39.2453 137.363C39.4335 137.022 39.6217 136.679 39.8851 136.448C40.3789 135.952 41.0165 135.689 41.6209 135.613C41.8445 135.574 42.1102 135.574 42.3383 135.613C42.5641 135.613 42.9028 135.649 42.8652 136.067C42.8275 136.526 42.4888 136.526 42.263 136.488C42.1102 136.488 41.922 136.488 41.7338 136.526C41.3198 136.601 40.8682 136.752 40.5272 137.099C40.1885 137.44 39.9626 137.896 39.8874 138.578V138.543V139.303C39.9626 139.34 39.9626 139.418 40.0003 139.533C40.4519 139.34 40.8682 139.267 41.3198 139.34C41.5456 139.38 41.7693 139.455 41.9995 139.571C41.9619 139.001 41.9995 138.428 42.2276 137.896C42.5287 137.175 43.2061 136.641 44.5633 136.413C44.7869 136.375 45.1301 136.3 45.2054 136.754C45.2807 137.212 44.9419 137.29 44.7139 137.327C43.6976 137.482 43.2416 137.823 43.0578 138.28C42.905 138.66 42.905 139.232 42.905 139.763C42.9803 139.686 43.0578 139.61 43.2061 139.61C43.3567 139.571 43.5427 139.533 43.6224 139.533L43.7353 139.571C44.0762 139.648 44.3375 140.027 44.6032 140.372C44.6386 140.408 44.6386 140.447 44.6386 140.485C44.7139 140.485 44.829 140.56 44.9021 140.673C45.1677 140.596 45.4688 140.485 45.8076 140.372C46.6002 140.027 47.5035 139.686 48.2585 139.61C48.4843 139.61 48.7876 139.571 48.823 140.027C48.8607 140.521 48.5596 140.521 48.3338 140.56C47.9574 140.598 47.5035 140.713 47.0142 140.866C47.2024 140.941 47.4282 141.019 47.7293 141.056C48.409 141.132 49.3898 141.019 50.7824 140.41C51.1234 140.257 51.7256 140.295 52.2924 140.374C52.5581 140.41 52.7463 140.41 52.8968 140.41C53.2355 140.41 53.5743 140.184 53.8776 139.836C54.2141 139.497 54.4798 139.079 54.4798 138.736C54.5551 137.482 53.5389 137.024 52.4806 136.946C52.3677 136.946 52.2547 136.946 52.102 137.024C51.9514 137.101 51.761 137.29 51.6127 137.482C51.4245 137.668 51.1965 137.936 50.8599 137.633C50.519 137.33 50.7426 137.062 50.8953 136.871C51.1588 136.605 51.4245 136.377 51.6857 136.225C51.9868 136.072 52.288 135.999 52.5536 136.036C53.0806 136.072 53.5344 136.189 53.9108 136.34C53.9861 135.197 54.3625 134.285 54.7012 133.37C55.0045 132.648 55.3831 131.659 55.4938 130.859C55.5713 130.022 55.5315 129.105 55.1529 127.967C55.1174 127.737 55.0045 127.433 55.4562 127.318C55.8702 127.168 55.9831 127.473 56.0584 127.704C56.3971 128.917 56.4724 129.907 56.3971 130.782C57.5683 129.528 57.4156 128.499 57.2274 127.396C57.1521 126.787 57.0768 126.216 57.1145 125.494C57.1897 124.466 58.0178 123.324 59.0739 122.221C59.603 121.725 60.1299 121.231 60.6967 120.812C59.4879 121.076 58.2835 121.191 57.3403 121.076C56.1337 120.886 55.2304 120.392 54.9293 119.289C54.5883 118.109 55.1927 117.083 56.0584 116.246C56.8488 115.485 57.9071 114.878 58.6975 114.725C58.9233 114.65 59.2643 114.572 59.375 114.991C59.4524 115.447 59.1115 115.564 58.8857 115.598C58.2458 115.753 57.3757 116.284 56.6982 116.931C56.0584 117.502 55.5691 118.186 55.7927 119.061C55.9809 119.707 56.5853 120.053 57.4134 120.168C58.3942 120.281 59.6008 120.126 60.8074 119.862C63.0325 119.366 65.2598 118.492 66.2007 118.111" fill="black"/><path fill-rule="evenodd" clip-rule="evenodd" d="M41.5434 140.368C41.4305 140.33 41.3176 140.291 41.167 140.253C40.9412 140.215 40.6777 140.253 40.4143 140.33C40.4896 140.483 40.6401 140.594 40.7154 140.709C41.0563 141.015 41.3176 141.167 41.3929 141.13C41.4681 141.09 41.3176 141.092 41.3552 141.015C41.3929 140.822 41.4305 140.594 41.5434 140.368ZM60.1343 55.0587C59.9063 54.8328 59.9462 54.4519 60.2473 54.2991H60.2849C60.5129 54.1087 61.0775 53.6902 61.8325 53.4997C62.0583 53.4267 62.2864 53.3868 62.5122 53.3868C62.7004 53.3868 62.9262 53.4267 63.1897 53.5374C63.4531 53.6503 63.679 53.7655 63.9048 53.9559C64.2457 54.1463 64.5092 54.3744 64.5491 54.4873C64.5867 54.5272 64.6221 54.7553 64.6221 54.8306C64.5491 55.2469 64.2103 55.3266 63.7188 55.3997C63.4553 55.4373 63.079 55.4772 62.738 55.6676C61.2679 56.4271 60.9646 56.0463 60.4377 55.3997C60.3624 55.3266 60.2871 55.1716 60.1366 55.0564M79.0264 145.315C78.3467 145.162 77.9703 144.553 77.7821 143.641H78.1961L79.1769 143.756L79.478 145.009C79.4028 145.353 79.2146 145.315 79.0264 145.315ZM76.7615 142.726L76.6862 141.624L76.0441 141.09C75.7076 141.661 75.6301 142.423 75.8559 143.411C76.0087 143.563 76.1969 143.869 76.3851 143.831L76.7615 142.726ZM67.8634 50.8358C68.0914 50.4151 68.4302 50.1892 68.7645 50.1117C69.0678 50.0741 69.3689 50.0741 69.5571 50.1117C69.9734 50.1892 70.3852 50.4926 70.6885 50.9111C70.9896 51.292 71.2176 51.788 71.2553 52.2796C71.366 53.0037 71.2553 53.575 70.9896 54.029C70.9143 54.1818 70.7992 54.3368 70.6885 54.4497C71.1379 54.1441 71.4058 53.7632 71.5564 53.3846C71.6671 53.0037 71.6316 52.5475 71.5564 52.0892C71.4058 51.633 71.2176 51.1768 70.9165 50.796C70.3497 50.0364 69.5571 49.4629 68.8796 49.4629C68.5409 49.5005 68.2376 49.7308 67.9741 50.0718C67.673 50.4527 67.4095 50.9842 67.1439 51.5156C67.1084 51.5931 66.8804 51.7836 66.7675 51.7836C66.1254 51.819 65.4479 51.8965 64.8812 52.0117C64.7328 52.0117 64.5424 52.0493 64.3166 52.0493C63.338 52.2021 62.6583 52.3549 62.0937 52.6206C61.6022 52.8841 61.1882 53.265 60.772 53.7987C60.7742 53.8363 60.6591 53.9116 60.6591 53.9515C60.1344 54.257 59.4547 54.5228 58.775 54.711C57.9093 54.9789 57.079 55.1317 56.6274 55.1317C56.023 55.1317 55.7949 55.1672 55.7219 55.2424C55.7219 55.32 55.7595 55.5835 55.7971 55.8913V55.9289C55.8348 56.4604 55.7595 56.9165 55.6466 57.3373C55.5337 57.8709 55.4208 58.3625 55.5337 59.049C55.7241 59.9613 56.1381 60.1916 56.3993 60.3444C56.6274 60.4972 56.8134 60.5725 56.8908 60.8781C56.9285 61.1438 57.0038 61.4117 57.1167 61.6376C57.1521 61.6 57.192 61.5225 57.192 61.4494C57.3779 61.1062 57.5285 60.6876 57.7942 60.5326C58.3609 60.1916 59.0008 60.1916 59.6428 60.2691C60.172 60.3068 60.9624 60.8382 61.5292 61.4494C62.0539 62.0163 62.4303 62.7027 62.3572 63.2364C62.2443 63.8454 61.7174 64.4521 61.0775 64.9083C60.4753 65.3268 59.7181 65.6324 59.1535 65.4796C58.4384 65.3644 57.834 63.9583 57.4953 63.4268C57.3824 63.5774 57.3071 63.8055 57.2318 64.0336C57.2318 64.0712 57.1189 64.2262 57.0813 64.2617C57.006 64.3392 56.8532 64.4145 56.7425 64.5296C56.4016 64.7931 55.9853 65.0987 55.9853 65.2116C55.9853 65.4397 56.1004 65.7054 56.1735 65.9379C56.3263 66.279 56.4746 66.62 56.4746 67.0009C56.4746 67.0407 56.4392 67.1537 56.4392 67.1537C56.3993 67.3064 56.3595 67.457 56.3595 67.6475C56.3595 67.9154 56.3595 68.1811 56.4724 68.3738C56.5477 68.5642 56.6606 68.7148 56.8488 68.7547C56.8886 68.7923 56.9993 68.7923 57.0768 68.7923C57.7189 68.8698 58.0576 68.6794 58.3587 68.5266C58.6598 68.4136 58.8502 68.2985 59.1868 68.3361C59.4879 68.3361 59.6384 68.4889 59.8288 68.717C59.9041 68.7923 60.017 68.9074 60.1299 69.0226C60.6546 68.8698 61.186 68.7569 61.7506 68.6417C62.5432 68.4535 63.3358 68.0305 64.0133 67.4614C64.7682 66.8171 65.4081 66.0177 65.8243 65.1784C66.1631 64.4565 66.3889 63.7324 66.3889 63.0083C66.4642 62.1757 66.3889 61.4117 66.1631 60.7651C66.1254 60.5348 66.0125 60.2315 66.3889 60.1185C66.8405 59.9657 66.9557 60.2315 67.031 60.4618C67.2944 61.2612 67.4073 62.1336 67.3321 63.0858C67.2568 63.883 67.0309 64.7621 66.6524 65.5969C66.1608 66.5093 65.4457 67.4592 64.6155 68.1457C63.8251 68.8698 62.8841 69.3614 61.9033 69.5541C61.3388 69.6692 60.7698 69.822 60.2805 69.9726C60.2052 70.0124 60.0923 70.0501 60.0546 70.0124C58.848 70.4287 57.8296 70.9624 56.8488 71.5714C55.4163 72.5213 54.1344 73.6994 52.5868 75.0701C52.6267 75.0324 52.702 75.0324 52.8149 75.0701C53.2289 75.2229 53.116 75.4864 53.0407 75.7167C52.8525 76.1352 52.702 76.5515 52.5868 76.897C52.3234 77.6189 52.0975 78.1902 51.8717 78.7216C51.7987 79.0626 51.7588 79.3306 51.7588 79.5963C51.7987 79.7491 51.7987 79.8997 51.8341 80.0525C52.7396 79.2531 53.1913 77.7318 53.5699 76.5515C53.6429 76.2504 53.758 75.9426 53.8732 75.6768C53.9462 75.4111 54.2097 75.296 54.4377 75.3712C54.6259 75.4488 54.8141 75.7145 54.7012 75.9824C54.6281 76.2504 54.513 76.5161 54.4377 76.8571C54.3625 77.0077 54.3248 77.1627 54.2872 77.3133C54.2518 77.6189 54.2119 77.9997 54.2119 78.3762C54.2119 78.9497 54.2518 79.5609 54.4377 80.1676C54.8141 79.9373 55.3034 79.4812 55.5315 77.9975C55.5315 77.7672 55.5315 77.5414 55.5713 77.3111C55.5713 77.0055 55.6067 76.7021 55.6067 76.3987C55.6067 76.1729 55.8326 76.0179 56.0207 76.0179C56.2466 76.0179 56.51 76.1729 56.51 76.4386C56.51 77.0498 56.4724 77.579 56.437 78.0374C56.3971 79.4457 56.5455 80.4356 58.2834 81.1951C58.1705 80.3957 58.1307 79.4081 58.2082 78.4935C58.3211 77.3886 58.5469 76.3611 58.9986 75.8695C59.1115 75.7167 59.375 75.6414 59.5654 75.7167C59.7535 75.792 59.7912 76.0179 59.7912 76.2105C59.4879 78.5688 61.0731 82.9068 63.524 83.4781C63.338 82.5259 63.2229 81.4608 63.2229 80.3957C63.2229 79.1025 63.338 77.7694 63.6369 76.6268C63.6745 76.3987 63.938 76.2481 64.166 76.2858C64.3919 76.3212 64.5424 76.5493 64.5424 76.7796C64.4671 77.3531 64.4671 77.8469 64.4671 78.3762C64.4671 80.7389 65.107 82.5259 66.1254 83.7837C67.0686 85.0016 68.3881 85.7213 69.7077 85.8741C69.2184 85.0769 68.8044 84.1602 68.501 83.2102C67.9365 81.3102 67.6332 79.2929 67.7106 77.6565C67.7106 77.4284 67.7106 77.0852 68.1645 77.1228C68.6538 77.1228 68.6538 77.4661 68.6184 77.6964C68.5431 79.2176 68.8066 81.1597 69.3711 82.909C69.9003 84.4325 70.5778 85.801 71.5209 86.7134C72.3158 87.4729 73.1039 87.5903 74.0449 87.6279C73.3298 86.5628 72.8383 85.5331 72.5372 84.468C72.1608 83.1748 72.0102 81.8041 72.0479 80.3226C72.0855 79.2929 72.2737 78.2677 72.577 77.2801C72.6523 77.0896 72.7652 76.7464 73.1814 76.8992C73.6353 77.052 73.5202 77.3576 73.4449 77.5458C73.1814 78.4581 72.9888 79.4103 72.9534 80.3226V81.3125C72.9888 81.1973 73.1039 81.1597 73.332 81.122C73.8235 81.0822 73.8235 81.3125 73.8589 81.5405C74.1622 85.2696 76.6109 86.5628 77.7423 86.7134C77.4057 85.9915 77.1401 85.1943 76.9519 84.3152C76.6884 83.2102 76.5379 82.072 76.5379 81.0822C76.5379 80.2828 76.6131 79.4834 76.6884 78.7615C76.7637 77.9997 76.9164 77.3553 77.1024 76.8195C77.1799 76.6268 77.2928 76.2083 77.7068 76.3611C78.1585 76.5139 78.0478 76.9324 77.9703 77.1206C77.7821 77.579 77.6692 78.188 77.5939 78.8346C77.5187 79.4834 77.4412 80.2429 77.4788 80.9294C77.5164 80.5485 77.5939 80.2053 77.7046 79.8244C77.7799 79.4435 77.8928 79.0626 77.9305 78.6087C77.9681 78.3407 78.0434 77.9599 78.4972 77.9997C78.9511 78.075 78.8736 78.4935 78.836 78.7216C78.7607 79.2531 78.6854 79.6738 78.5725 80.0547C78.3467 80.9294 78.2692 81.6933 78.4574 82.6034C78.6079 83.1371 79.4758 84.3152 78.9113 84.6584C78.5349 84.9241 78.3467 84.5831 78.2316 84.3949C77.9305 83.9365 77.7401 83.4405 77.6271 82.9467C77.6648 83.2478 77.7024 83.518 77.7799 83.8214C78.1563 84.5831 78.5725 85.0016 78.9113 85.2297C79.0618 85.3427 79.25 85.4179 79.4006 85.4578C79.0596 84.3152 78.9113 82.6411 78.9489 80.9294C78.9843 79.2176 79.2876 77.4284 79.9253 76.0599C80.0426 75.8673 80.3039 75.6414 80.4943 75.6791C80.6825 75.7189 80.833 76.0201 80.833 76.2504C80.833 76.5914 80.7976 77.0099 80.7201 77.5436C81.0212 76.6689 81.1717 75.792 81.3223 74.9151C81.5858 73.5067 81.8514 72.1006 81.6256 70.8827C81.5858 70.7299 81.5858 70.5793 81.6633 70.4642C81.8514 70.2737 82.2278 70.3867 82.5666 70.3867C82.7946 70.3867 82.9828 70.3114 83.1333 70.1586C82.2278 69.8176 81.6256 69.2839 81.247 68.6373C80.7954 67.9508 80.6072 67.116 80.5673 66.3144C80.5319 65.8206 80.5319 65.3644 80.4544 64.8706C80.3415 64.9858 80.1909 65.0987 80.0426 65.2116C79.6264 65.5925 79.1725 65.8604 78.6478 66.124C78.2692 66.3122 77.8153 65.8582 78.0434 65.4774C78.081 65.3622 78.1563 65.2094 78.2316 65.0588C78.1563 65.0588 78.1563 65.0965 78.1164 65.1363C77.4035 65.7829 76.4958 65.9734 75.5172 66.0487C75.1762 66.0487 74.9128 65.7054 75.101 65.3622C75.1762 65.2094 75.2139 65.0588 75.3268 64.8684C74.574 65.7431 73.5556 66.5026 72.3866 66.9234C72.0102 67.0385 71.6693 66.6554 71.822 66.3122C71.9726 65.9335 72.1231 65.5128 72.1984 65.0965C71.5187 65.9712 70.5756 66.6554 69.6324 66.9986C69.2937 67.1138 68.9549 66.7683 69.0678 66.4273C69.3689 65.5128 69.5571 64.678 69.5571 63.8011C69.4818 62.9242 69.2937 62.0893 68.6914 61.1372C68.5785 60.9467 68.3903 60.681 68.7645 60.4529C69.1431 60.185 69.3313 60.4529 69.4464 60.6411C70.1261 61.7439 70.4272 62.7714 70.4272 63.7612C70.4649 64.4078 70.3874 65.0544 70.239 65.701C70.6907 65.3976 71.1423 64.9813 71.4833 64.523C72.0124 63.8365 72.3888 63.0393 72.4242 62.2399C72.4242 62.0495 72.6501 61.8192 72.8781 61.8192C73.1062 61.8192 73.2943 62.0096 73.332 62.2399C73.3696 62.9995 73.332 63.7988 73.2191 64.596C73.1814 64.9415 73.1062 65.2825 72.991 65.6257C73.6707 65.2072 74.2353 64.7134 74.6892 64.1819C75.3666 63.3449 75.7452 62.4702 75.5947 61.859C75.5548 61.631 75.7076 61.4029 75.8958 61.363C76.1216 61.2877 76.4227 61.4029 76.498 61.5911C76.6862 62.1248 76.726 62.809 76.6109 63.5309C76.5356 64.0247 76.4227 64.5207 76.1991 65.0146C76.726 64.9393 77.1401 64.7488 77.5164 64.4432C78.0057 63.9871 78.3821 63.1102 78.4198 61.5889C78.2316 61.3985 78.0057 61.208 77.7799 61.0176C77.3637 60.5991 77.0271 60.1805 76.7969 59.6867C76.684 59.4188 76.6087 59.1929 76.5334 58.9626C76.4205 58.657 76.3452 58.3537 76.157 58.0879C75.8559 57.6318 75.4419 57.0959 74.9504 56.6397C74.574 56.2611 74.1224 55.9533 73.7062 55.7252C73.2921 55.5724 72.9157 55.2314 72.5748 54.8151C72.422 54.6246 72.2737 54.432 72.1608 54.2039C71.822 54.7752 71.2575 55.2712 70.3874 55.5724C70.1992 55.6499 69.9734 55.7252 69.8228 55.3089C69.7497 55.1561 69.7497 55.0409 69.7874 54.9679C69.7497 54.9679 69.7099 55.0055 69.6745 55.0055C69.4464 55.0409 69.2206 55.1229 69.1077 54.6645C68.9948 54.2061 69.183 54.1685 69.4088 54.091C69.7874 54.0157 70.0531 53.8275 70.2014 53.5617C70.3896 53.2561 70.4294 52.8753 70.3542 52.4191C70.3165 52.0759 70.166 51.7326 69.9778 51.4669C69.7896 51.2012 69.6014 51.0506 69.411 51.0108C69.2981 51.0108 69.1099 50.9709 68.9593 51.0108C68.8841 51.0506 68.7689 51.086 68.6959 51.2388C68.583 51.4293 68.47 51.6574 68.0937 51.4293C67.6774 51.2388 67.7527 51.0506 67.8656 50.8203M51.3846 74.9217C50.4038 73.7813 49.423 72.4505 48.6326 71.1949C47.6142 69.7113 46.8238 68.3384 46.4851 67.5412V67.4282C46.3345 66.248 46.7485 65.8671 47.3884 65.3334C47.4636 65.2581 47.5766 65.1452 47.6895 65.0677C47.9175 64.8396 48.1057 64.6093 48.2186 64.3436C48.6703 63.5818 48.7832 62.7072 48.6703 61.8325C48.5197 60.9224 48.1057 60.0455 47.5013 59.4343C47.2755 59.1686 46.9744 58.9405 46.6733 58.7523C46.4098 58.5995 46.1065 58.4865 45.7677 58.4112C45.6548 58.4112 45.3913 58.3337 45.4268 58.6371C46.3677 59.1309 47.2002 59.9303 47.5766 60.9954C47.8777 61.8723 47.84 62.9352 47.3131 64.1554C47.2378 64.379 47.1625 64.5717 46.7485 64.3834C46.2947 64.1952 46.4098 64.0004 46.4851 63.7745C46.9367 62.7847 46.9367 61.9498 46.7109 61.301C46.4474 60.4662 45.7677 59.8572 45.015 59.4764C44.5235 59.2106 44.032 59.0578 43.5404 59.0202C43.0135 58.9427 42.7877 59.1331 42.6748 59.6292H42.7124C43.7308 59.8595 44.6342 60.3533 45.1655 61.3409C45.6172 62.1425 45.8054 63.2054 45.6172 64.6935C45.5817 64.9193 45.5818 65.1496 45.0925 65.0721C44.6762 65.0345 44.6762 64.8042 44.7139 64.5783C44.9043 63.3228 44.7139 62.4082 44.3751 61.8015C43.9987 61.0796 43.319 60.6987 42.5264 60.5437C42.0371 60.4308 41.5833 60.4706 41.0563 60.5083C40.8283 60.5437 40.7154 61.27 40.753 61.4605C41.5456 61.8015 42.2253 62.2953 42.677 62.9419C43.5427 64.0823 43.9213 65.5283 44.1869 66.7086C44.2622 66.9389 44.2998 67.1669 43.846 67.2799C43.3943 67.3972 43.3567 67.1669 43.3168 66.9389C43.0556 65.8339 42.6748 64.503 41.9597 63.5132C41.508 62.902 40.8682 62.4481 40.0357 62.22C39.7722 62.1447 38.9043 62.7537 38.9043 63.0947C38.9043 63.2851 38.9442 63.4756 38.9818 63.666C39.0925 64.2727 39.2077 64.8839 39.4335 65.453C39.7722 66.3675 40.2261 67.1293 40.7907 67.7737C41.28 68.345 41.8467 68.7259 42.3737 68.9163C42.7877 69.0292 42.7877 69.6758 42.4091 69.791C42.2231 69.8685 42.108 69.9438 42.0327 70.0589C41.9198 70.1719 41.8822 70.287 41.9198 70.3247C41.9198 70.3623 41.9951 70.3623 42.108 70.3999C42.2608 70.4775 42.4489 70.5527 42.6371 70.6679C43.4652 71.1617 43.5404 71.392 43.7309 71.9611C43.8438 72.1914 43.919 72.4571 44.1449 72.838C44.6342 73.7902 45.2386 75.3092 45.843 76.9457C46.4474 78.7748 47.0496 80.7522 47.4636 82.3134C47.8799 81.9325 48.181 81.5494 48.409 81.2859C48.4843 81.2084 48.5219 81.0954 48.5574 81.0179C48.5839 80.9928 48.609 80.9678 48.6326 80.9427C48.6326 79.4967 48.8961 78.3895 49.4253 77.4041C49.8791 76.4917 50.5544 75.7322 51.3869 74.9306M49.3123 81.618C49.3876 81.5782 49.4252 81.5405 49.4651 81.5051C50.1049 81.2372 50.5942 80.8563 51.0083 80.3625C51.0481 80.5906 51.1212 80.781 51.2363 80.9714C51.3492 81.1995 51.688 81.277 51.8739 81.1619C52.5182 80.781 53.0053 80.2097 53.3817 79.5653C53.4569 80.0193 53.5721 80.5131 53.8001 81.0091C53.913 81.3147 54.2894 81.3877 54.513 81.1597C54.5529 81.1597 54.6281 81.0844 54.7012 81.0467C55.0045 80.8917 55.4185 80.7013 55.7595 80.2097C56.0982 81.0467 56.9285 81.731 58.6997 82.3798C59.0384 82.4927 59.3772 82.1517 59.3019 81.8085C59.1137 81.1242 59.0406 79.944 59.1137 78.8412C59.6428 80.9737 60.9225 83.2921 62.6605 84.1314C62.8111 84.5875 62.9993 85.1212 63.2627 85.6903C63.5638 86.4521 63.5638 86.906 63.3756 87.7453C63.2627 88.3564 62.9993 88.9632 62.6605 89.4946C62.169 90.3339 61.3786 90.9805 60.586 91.0181C59.9838 91.058 59.3794 90.8299 58.8126 90.562C58.248 90.2586 57.7211 89.8401 57.3425 89.4946C57.2296 89.4592 57.0038 89.3839 56.9285 89.4193C56.7403 89.4592 56.5477 89.4946 56.3993 89.5721C54.3647 90.1457 52.7817 90.562 51.1212 90.449C50.4038 90.4092 49.6511 90.2586 48.8585 89.953C48.0681 89.6474 47.2002 89.1935 46.3677 88.6974C45.5773 88.2413 45.0504 87.8228 44.5212 87.4065C43.5803 86.6801 41.4305 85.0083 40.1862 85.0083C39.6195 84.9684 39.1302 85.4644 38.601 85.883C38.4128 86.1133 38.187 86.2638 38.0365 86.379C37.9612 85.6925 38.0741 84.9684 37.018 85.2009C36.6771 85.2762 36.3007 85.5021 35.8844 85.7302C35.3199 86.0357 34.9059 86.224 34.5273 86.2262C34.1509 86.2262 33.7745 86.0734 33.3959 85.77C32.7561 85.1987 32.0786 84.4746 31.4719 83.6752C30.9472 82.9888 30.531 82.2669 30.3428 81.6978C30.2299 81.3545 30.1148 80.5153 30.872 80.2495C31.2085 80.4023 31.7376 80.6304 32.5302 81.1619C32.7561 81.277 33.0594 81.4298 33.3251 81.0489C33.5509 80.6681 33.2454 80.4776 33.0217 80.3625C32.1561 79.7934 31.5871 79.5653 31.2107 79.3749C30.7967 79.1866 30.759 78.9918 30.4203 78.7659C30.3827 78.6862 30.0041 77.3177 30.7214 77.3177C32.269 77.5458 32.7959 78.3075 33.2874 78.9563C33.5133 79.2597 34.0402 80.1743 34.5295 79.7159C34.9457 79.2974 34.266 78.7283 34.0025 78.3828C33.4756 77.7008 32.9088 76.9014 31.3989 76.5205C31.3989 75.5307 31.3613 75.4178 31.928 75.11C32.1915 75.0745 32.4173 75.0745 32.6454 75.11C33.097 75.1897 33.4756 75.3425 33.7014 75.5307C33.9649 75.7588 34.1155 76.0245 34.1531 76.2149C34.2284 76.443 34.266 76.8217 34.6822 76.711C35.1738 76.6335 35.0985 76.2548 35.0586 76.0644C34.9856 75.6458 34.7221 75.1498 34.2682 74.8088C33.7413 74.3925 33.0638 74.1998 32.4195 74.1644C32.7583 73.365 32.4948 73.4381 33.2122 73.2122C33.7014 73.2122 34.1531 73.2499 34.5295 73.6307C34.8328 73.9363 35.021 74.3548 35.2092 74.8088C35.3221 75.152 35.4749 75.5705 35.5501 75.9891C35.8512 77.0143 36.1523 78.0064 36.832 78.5378C37.6623 79.4502 38.3043 79.7557 39.1324 80.1366C39.3958 80.2894 39.6969 80.4023 40.0003 80.5928C40.4918 80.8585 40.8283 81.0113 41.1693 81.2017C42.677 82.0011 44.074 82.7607 46.184 84.1314C45.3559 84.4724 44.6032 84.8931 44.0364 85.4224C43.8482 85.5375 43.5847 85.8055 43.8858 86.1487C44.1869 86.4897 44.4526 86.2616 44.6386 86.111C45.3936 85.4224 46.5249 84.8931 47.7315 84.5122C48.936 84.169 50.1802 84.0184 51.088 84.169C51.3138 84.2089 51.6525 84.2487 51.7278 83.7881C51.8031 83.3342 51.4643 83.2943 51.2385 83.2567C50.2201 83.0663 48.823 83.2567 47.4659 83.6376C47.4282 83.6376 47.3906 83.6774 47.3153 83.6774C48.2208 82.9555 48.7478 82.3067 49.1264 81.8506C49.1618 81.7376 49.2393 81.6601 49.3146 81.6225M63.752 84.4724C64.8081 87.2138 66.7343 91.7024 68.3926 95.5466C69.07 97.2206 69.752 98.7419 70.3165 100.11C70.4294 100.341 70.5047 100.529 70.0885 100.722C69.6745 100.872 69.5992 100.682 69.4841 100.454C69.2604 99.8868 68.9195 99.1604 68.5431 98.2858V98.3234C68.2796 98.5138 67.9387 98.7419 67.7527 98.7796C67.5247 98.8194 67.1859 98.9324 67.1129 98.474C67.0376 98.0577 67.3763 97.9425 67.6022 97.8672C67.8302 97.7521 68.0538 97.5616 68.1667 97.4487C68.0184 96.9903 67.7903 96.5342 67.6022 96.0758C67.3011 96.4589 66.8472 96.7623 66.3955 97.028C65.8686 97.2937 65.304 97.4864 64.7372 97.5594C64.5092 97.5971 64.1727 97.7499 64.0952 97.2583C63.9845 96.8353 64.321 96.687 64.5491 96.6471C65.076 96.5718 65.5653 96.419 65.9815 96.2308C66.3601 96.0027 67 95.5443 67.1881 95.128C66.2073 92.7653 65.1513 90.2962 64.2457 88.1261C64.0952 88.7727 63.7941 89.4193 63.4553 89.9907C62.7779 91.058 61.7572 91.8175 60.6657 91.9349C59.8355 91.9703 59.0805 91.7046 58.403 91.3614C57.8362 91.058 57.3469 90.7148 56.9329 90.3715C56.8554 90.4092 56.7447 90.4092 56.6318 90.449C54.7809 90.9805 53.2732 91.399 51.7278 91.399C54.2562 96.1932 57.0812 98.9346 59.4591 101.293C61.3454 103.12 62.9638 104.719 64.0199 106.811H63.9845C65.1136 108.753 65.5276 110.806 65.9815 112.899C65.9815 112.976 66.0192 113.049 66.0944 113.395C66.5461 115.791 67.0398 118.149 67.9409 120.204C68.8088 122.221 70.0907 124.01 72.318 125.339C73.3342 125.986 74.3526 126.557 75.4087 127.053C76.4249 127.549 77.481 128.005 78.7253 128.386C79.4404 128.612 80.0825 128.917 80.6847 129.3C81.2891 129.719 81.816 130.213 82.2323 130.782C83.2529 132.19 83.2529 133.561 83.1378 137.443V137.861C83.8175 137.976 83.8551 138.087 84.4551 137.976C84.6831 137.899 84.9112 137.824 85.1724 137.824C85.4359 137.861 85.7414 137.937 86.0049 138.054C86.2285 138.167 86.4942 138.355 86.6425 138.548C86.7953 138.738 87.0211 139.006 86.6824 139.27C86.3436 139.573 86.078 139.307 85.9296 139.117C85.8543 139.042 85.7414 138.964 85.6263 138.889C85.4758 138.814 85.3252 138.774 85.1746 138.774C85.0241 138.774 84.8359 138.814 84.6854 138.851C83.7798 139.081 83.5916 138.814 82.8743 138.736C82.6108 138.736 82.3097 138.736 82.0064 138.774C81.1009 138.889 79.0286 137.976 79.0286 137.976C78.0079 138.395 77.4079 138.814 77.0648 139.192C76.7637 139.535 76.6508 139.837 76.5379 140.029C76.5379 140.069 76.5002 140.107 76.5002 140.184C76.4626 140.297 76.4249 140.375 76.3895 140.41C76.3895 140.45 76.4249 140.488 76.4249 140.488C76.4648 140.601 76.5379 140.756 76.6884 140.868C76.7637 140.944 76.8035 140.981 76.8766 141.021C76.9917 140.868 77.0648 140.678 77.1799 140.488C77.481 140.029 77.9327 139.688 78.422 139.422C79.2146 139.081 80.2352 139.006 81.3644 139.46C81.5902 139.538 81.8913 139.688 81.743 140.107C81.5902 140.523 81.2514 140.41 81.0256 140.295C80.16 139.954 79.405 139.994 78.8006 140.257C78.4596 140.45 78.1607 140.713 77.9327 141.019C77.7445 141.325 77.5939 141.663 77.5939 142.007C77.5563 142.345 77.5939 142.691 77.7423 142.959C77.7821 142.996 77.8175 143.074 77.8175 143.152C78.1186 143.112 78.3821 143.074 78.6854 143.074H79.2876C79.4382 142.693 79.7017 142.39 80.1179 142.12C80.5319 141.854 81.0965 141.663 81.7009 141.663C82.0396 141.663 82.416 141.701 82.7968 141.818C83.0204 141.896 83.2861 141.971 83.1732 142.425C83.0603 142.844 82.757 142.768 82.5334 142.691C82.2677 142.613 82.0042 142.578 81.7407 142.578C81.2869 142.613 80.9105 142.729 80.6094 142.917C80.3813 143.072 80.2684 143.182 80.1932 143.375C80.2684 143.413 80.3813 143.45 80.5341 143.488C80.8352 143.603 81.2138 143.643 81.5149 143.643C81.7031 143.643 81.9666 143.643 82.1924 143.603C82.4182 143.566 82.6463 143.488 82.9097 143.415C83.2861 143.262 83.6625 143.074 83.9636 142.919C84.2293 142.806 84.4529 142.653 84.6433 142.616C84.8315 142.538 85.1348 142.427 85.323 142.846C85.4735 143.264 85.1348 143.417 84.9466 143.49C84.8337 143.532 84.6455 143.605 84.4175 143.758C84.2293 143.796 84.0765 143.911 83.8883 143.984C84.1916 144.175 84.5282 144.287 84.8713 144.365C85.6241 144.518 86.3414 144.48 86.6049 144.252L86.6403 144.212C86.6802 144.172 86.7554 144.097 86.8684 144.022C87.3953 143.563 88.2632 142.881 88.9783 142.881H90.2226C90.4108 142.651 90.6742 142.423 90.9 142.197C91.3141 141.816 91.7657 141.435 91.7657 141.245C91.7657 141.205 91.4292 141.017 91.1635 140.899C90.9 140.751 90.6366 140.636 90.4838 140.483C90.2204 140.217 89.8041 140.065 89.2772 140.065C88.8233 140.102 88.261 140.291 87.6942 140.709C87.5414 140.824 87.2049 141.092 86.9414 140.709C86.6757 140.33 86.9791 140.065 87.2049 139.949C87.8824 139.416 88.5975 139.188 89.2396 139.15C89.5407 139.15 89.7665 139.188 89.9923 139.228V139.188C89.917 139.002 89.844 138.884 89.7288 138.769C89.503 138.577 89.2396 138.466 88.9362 138.426C88.6351 138.391 88.334 138.426 87.9953 138.466C87.7695 138.466 87.5436 138.506 87.506 138.05C87.4683 137.591 87.6942 137.591 87.92 137.551C88.2964 137.514 88.6728 137.478 89.089 137.514C89.1643 137.551 89.2772 137.551 89.3525 137.591C89.2772 137.325 89.2041 137.097 89.1266 136.869C88.8986 136.147 88.6705 135.346 88.5222 134.549C88.4492 134.245 88.4093 133.977 88.3318 133.709C88.2942 133.9 88.2189 134.321 87.7672 134.245C87.3554 134.13 87.4285 133.749 87.4661 133.521C87.692 132.303 87.5414 130.975 87.0521 129.83C86.5983 128.804 85.8809 127.967 84.9023 127.549C84.7119 127.434 84.3754 127.281 84.5636 126.865C84.7518 126.446 85.0529 126.599 85.2787 126.674C86.4853 127.248 87.3554 128.233 87.8802 129.451C88.0683 129.909 88.2189 130.328 88.2942 130.822C88.3318 130.746 88.3318 130.671 88.3318 130.594C88.4071 129.985 88.5222 129.376 88.5953 128.88C88.6706 128.579 88.748 128.348 88.7857 128.158C88.8986 127.93 88.9739 127.739 88.9739 127.436C88.9739 127.398 88.7857 127.398 88.5599 127.358C88.3318 127.319 88.0307 127.246 87.7672 127.093C86.6337 126.599 85.6551 125.645 84.5215 124.509C84.2979 124.316 84.1075 124.088 83.8463 123.86C83.6204 123.636 83.3547 123.178 82.9784 122.529C82.6751 121.882 82.2987 121.083 81.9223 120.173C81.6212 119.446 81.3931 118.649 81.2802 117.963C81.1673 117.314 81.1673 116.705 81.3157 116.174V116.138C81.8072 114.615 81.8802 113.282 81.6942 112.179C81.5061 111.036 81.0146 109.973 80.3747 108.948C79.8854 108.109 79.0552 107.159 78.2626 106.167C77.8109 105.595 77.3216 105.026 76.8301 104.378C75.774 103.009 75.0567 101.791 74.5674 100.575C74.0382 99.3952 73.7371 98.2525 73.5113 97.0745C73.1349 95.0572 73.1726 92.814 73.2479 90.5664C73.2479 89.8821 73.2479 89.1979 73.2833 88.5137C72.453 88.4361 71.7003 88.1726 70.87 87.371C70.7195 87.2182 70.5313 87.03 70.3807 86.8396H70.2678C70.042 86.8396 69.8538 86.8396 69.6258 86.7997C68.0427 86.6093 66.5328 85.8099 65.4037 84.3639C64.9498 83.8302 64.5734 83.1858 64.2701 82.4241C64.3099 82.9555 64.4229 83.4493 64.5358 83.9077C64.6088 84.1735 64.4229 84.479 64.1195 84.479H63.7409L63.752 84.4724ZM75.2537 87.7851C74.3858 86.5672 73.7814 85.4224 73.405 84.2067C73.2169 83.6353 73.1039 83.0286 73.0287 82.4174C73.7084 86.3369 76.6862 87.6323 77.9305 87.6678C78.0434 87.8205 78.2316 87.9335 78.3445 88.0486C78.0434 88.1638 77.6648 88.2014 77.3282 88.2014C76.498 88.2014 75.7076 88.011 75.2515 87.7829M80.233 63.7346C79.9695 64.1155 79.5932 64.4587 79.2124 64.7245C79.25 64.5362 79.2876 64.3059 79.2876 64.1155C79.3629 63.5066 79.3629 62.8954 79.3629 62.3661C79.7791 62.7847 80.0802 63.243 80.233 63.7346ZM51.0083 78.4227C50.592 79.3749 50.178 80.0193 49.5382 80.4001C49.6134 79.3726 49.8393 78.5733 50.2533 77.8137C50.6695 76.9767 51.3094 76.2149 52.1772 75.4532C52.0267 75.8363 51.8363 76.2149 51.7256 76.5958C51.5728 77.0121 51.4245 77.3952 51.3116 77.7761C51.2363 77.8137 51.1964 77.9289 51.161 78.0064C51.1212 78.1193 51.0481 78.312 51.0083 78.4249M82.4182 111.109C82.7215 111.335 83.0979 111.528 83.4389 111.681C84.5702 112.214 85.8521 112.478 87.0211 112.478C88.5289 112.478 90.0366 111.984 91.1679 110.919C92.151 109.967 92.8284 108.673 92.9037 106.924C93.1295 103.27 90.9798 99.4262 88.5687 95.1657C87.475 93.2237 86.3414 91.2108 85.3651 89.0385C84.4551 87.0588 83.7422 85.119 83.3658 83.1039C82.9496 81.1264 82.8012 79.0693 82.9894 76.7862C83.1378 75.3779 83.554 74.1223 84.1186 73.0196C84.7606 71.8769 85.5887 70.9646 86.4942 70.3557C86.9481 70.0899 87.3997 69.8995 87.8514 69.7467C88.3783 69.5939 88.9075 69.5563 89.4344 69.5563C91.2432 69.5186 92.9413 70.4708 94.148 72.1427C95.317 73.7791 96.0343 76.102 96.0697 79.0294C96.0697 79.0671 96.1472 79.2952 96.1849 79.3328C96.4882 79.676 96.9 80.3979 97.2409 81.2748C97.6173 82.1871 97.9583 83.25 98.1465 84.2045C98.297 84.8134 98.297 85.5752 98.3346 86.2948C98.3346 87.0544 98.3723 87.8161 98.5228 88.4649C98.6357 88.9942 98.8638 89.5278 99.1295 90.0992C99.4284 90.8233 99.7671 91.6204 99.9199 92.6103C99.8844 92.6103 99.8844 92.5726 99.8844 92.5726C99.1671 91.9238 98.5671 91.1244 98.2616 90.0615C97.9228 88.9942 97.8476 87.701 98.1487 86.0269C98.1863 85.7988 98.2616 85.3825 97.8099 85.2674C97.3561 85.1921 97.2808 85.646 97.2431 85.8741C96.9022 87.6611 97.0151 89.147 97.3561 90.3649C97.4313 90.6328 97.5443 90.8609 97.6549 91.1244C97.6195 91.089 97.5797 91.089 97.5066 91.0513C97.4712 91.0115 97.4313 91.0115 97.3915 90.9738C96.8668 90.5553 96.5635 89.7936 96.4151 88.9964C96.2269 87.7408 96.3775 86.3723 96.6033 85.4954C96.6387 85.2696 96.7539 84.8488 96.3022 84.7359C95.8483 84.623 95.7354 85.0791 95.6978 85.2696C95.4719 86.2195 95.2838 87.7807 95.5096 89.1492C95.5472 89.4149 95.6225 89.6806 95.6978 89.9508C95.6225 89.8733 95.5472 89.7958 95.5096 89.7581C95.3967 89.6828 95.2838 89.5301 95.1708 89.4149C95.1708 89.3396 95.1332 89.2998 95.0579 89.2267C94.6439 88.6177 94.5288 87.7408 94.6063 86.8661C94.717 85.4954 95.1709 84.1624 95.4742 83.6686C95.6247 83.4781 95.8129 83.0574 95.4365 82.8293C95.0601 82.5658 94.8343 82.9821 94.7192 83.1748C94.3805 83.7084 93.9288 84.9618 93.7428 86.2948C93.6277 85.914 93.5546 85.5331 93.4794 85.1522C93.3266 84.2421 93.2912 82.9843 93.3664 81.8417C93.4373 80.626 93.6299 79.5609 93.8557 79.0272C93.8557 78.9918 93.931 78.8744 93.931 78.8368C93.931 78.684 94.0838 78.3053 94.1923 77.9244C94.4203 77.3908 94.6483 76.7818 94.6107 76.4009C94.4978 75.1454 93.8934 73.6994 92.8749 72.6343C92.0093 71.7596 90.8779 71.1905 89.5207 71.3012C88.2388 71.3787 87.3732 71.9478 86.7289 72.7848C86.089 73.5466 85.7127 74.5342 85.447 75.5263C85.1459 76.5161 85.0706 77.7318 85.1082 79.0272C85.1835 80.4356 85.4093 81.9945 85.7857 83.5556C86.8042 87.7408 88.613 90.6727 90.5746 93.7928C91.4026 95.1236 92.2727 96.4921 93.0985 98.0532C93.8557 99.4217 94.4956 101.058 94.945 102.732C95.3236 104.256 95.514 105.775 95.4764 107.298C95.4011 109.772 94.4956 111.98 92.9901 113.501C91.5554 114.984 89.596 115.899 87.2204 115.937C86.3149 115.937 85.447 115.899 84.6566 115.671C83.9415 115.443 83.264 115.1 82.6197 114.604C82.7703 113.654 82.7703 112.817 82.6197 112.017C82.5821 111.712 82.5068 111.41 82.4315 111.105M66.2051 118.109C65.2642 118.49 63.0369 119.365 60.8118 119.861C59.6074 120.124 58.3986 120.279 57.4178 120.166C56.5897 120.051 55.9853 119.706 55.7971 119.059C55.5713 118.184 56.0606 117.498 56.7027 116.929C57.3824 116.284 58.2502 115.751 58.8901 115.596C59.1159 115.56 59.4569 115.445 59.3794 114.989C59.2687 114.57 58.9277 114.648 58.7019 114.723C57.9115 114.876 56.8532 115.485 56.0628 116.244C55.1971 117.084 54.5905 118.109 54.9337 119.287C55.2348 120.39 56.1403 120.884 57.3447 121.074C58.2879 121.189 59.4923 121.074 60.7011 120.811C60.1366 121.229 59.6074 121.723 59.0783 122.219C58.0222 123.322 57.1942 124.462 57.1189 125.492C57.0812 126.214 57.1543 126.785 57.2318 127.394C57.42 128.494 57.5728 129.526 56.4016 130.78C56.4768 129.905 56.4016 128.915 56.0628 127.702C55.9875 127.469 55.8746 127.166 55.4606 127.316C55.0089 127.434 55.1219 127.737 55.1573 127.965C55.5359 129.103 55.5735 130.02 55.4982 130.857C55.3875 131.657 55.0089 132.646 54.7056 133.368C54.3691 134.283 53.9927 135.193 53.9152 136.338C53.5389 136.185 53.085 136.07 52.5581 136.034C52.2924 135.995 51.9913 136.07 51.6902 136.223C51.4267 136.378 51.1632 136.604 50.8998 136.869C50.747 137.062 50.5212 137.328 50.8643 137.631C51.2009 137.934 51.4289 137.669 51.6171 137.48C51.7654 137.288 51.9558 137.1 52.1064 137.022C52.2592 136.945 52.3721 136.945 52.485 136.945C53.5411 137.022 54.5595 137.48 54.4842 138.734C54.4842 139.077 54.2208 139.496 53.882 139.834C53.5787 140.18 53.2378 140.408 52.9012 140.408C52.7507 140.408 52.5625 140.408 52.2968 140.372C51.7322 140.293 51.1278 140.255 50.7869 140.408C49.3943 141.019 48.4135 141.13 47.7338 141.054C47.4304 141.017 47.2046 140.939 47.0186 140.864C47.5079 140.709 47.9618 140.596 48.3382 140.558C48.5618 140.519 48.8651 140.519 48.8275 140.025C48.792 139.569 48.4887 139.608 48.2629 139.608C47.5079 139.684 46.6046 140.025 45.812 140.37C45.4733 140.483 45.1722 140.594 44.9065 140.671C44.8334 140.556 44.7183 140.483 44.643 140.483C44.643 140.446 44.643 140.406 44.6076 140.37C44.3419 140.025 44.0784 139.646 43.7397 139.569L43.6268 139.531C43.5493 139.531 43.3611 139.569 43.2106 139.608C43.0622 139.608 42.9847 139.684 42.9095 139.761C42.9095 139.228 42.9095 138.659 43.0622 138.278C43.2482 137.821 43.7021 137.48 44.7183 137.325C44.9463 137.288 45.2851 137.21 45.2098 136.752C45.1345 136.298 44.7936 136.373 44.5677 136.411C43.2106 136.639 42.5309 137.173 42.232 137.895C42.0039 138.426 41.9663 139 42.0039 139.569C41.7759 139.453 41.5523 139.378 41.3242 139.338C40.8726 139.263 40.4563 139.338 40.0047 139.531C39.9671 139.416 39.9671 139.338 39.8918 139.301V138.541V138.577C39.9671 137.895 40.1929 137.438 40.5316 137.097C40.8726 136.752 41.3242 136.599 41.7383 136.524C41.9264 136.486 42.1168 136.486 42.2674 136.486C42.491 136.524 42.832 136.524 42.8696 136.065C42.9072 135.647 42.5685 135.611 42.3427 135.611C42.1168 135.572 41.8512 135.572 41.6253 135.611C41.0209 135.687 40.3833 135.95 39.8896 136.446C39.6261 136.677 39.4379 137.02 39.2497 137.361C39.2497 137.208 39.2497 137.097 39.2874 136.98C39.3604 136.524 39.511 136.105 39.8143 135.724C40.1154 135.306 40.5294 134.963 41.0586 134.659C41.5102 134.433 42.0371 134.243 42.5663 134.243C43.3567 134.243 44.0762 134.697 44.7891 135.118C45.584 135.649 46.3721 136.105 47.3552 136.032C47.7692 135.992 48.1478 135.842 48.4489 135.649C48.8253 135.386 49.1264 135.078 49.3943 134.774C49.7706 134.243 49.733 133.709 49.733 133.138V132.872C49.7706 132.23 49.733 131.541 49.733 130.817C49.6954 130.098 49.6954 129.334 49.6577 128.652C49.6201 127.89 49.6201 127.088 49.6201 126.362C49.6201 125.946 49.5824 125.49 49.5824 125.109C49.8835 125.49 50.2245 125.868 50.5234 126.289C50.6385 126.477 50.8245 126.707 51.2407 126.442C51.5773 126.176 51.3891 125.946 51.2784 125.757C51.2031 125.68 51.0902 125.527 50.9374 125.377C50.1094 124.349 49.6201 123.665 49.3943 122.445C49.2039 121.455 49.0157 120.505 48.978 119.515C48.8629 118.26 48.978 116.966 49.319 115.711C49.6954 114.531 50.2976 113.348 51.3182 112.323C54.0326 109.468 57.9912 109.203 62.6295 108.937C63.1188 108.899 63.5328 108.859 63.9491 108.859C64.5136 110.228 64.7771 111.639 65.0782 113.045C65.0782 113.085 65.1181 113.12 65.1181 113.197C65.0428 113.423 64.89 113.729 64.7417 114.072C64.4782 114.721 64.1373 115.443 64.2125 116.014C64.248 116.473 64.5136 116.811 64.9277 117.042C65.2288 117.192 65.5675 117.272 66.0214 117.305C66.0966 117.575 66.1719 117.841 66.2096 118.107" fill="#FDD800"/><path fill-rule="evenodd" clip-rule="evenodd" d="M47.5389 87.7452C48.4821 87.8205 49.6887 87.898 51.119 87.898C52.5913 87.8581 54.3248 87.7452 56.2864 87.3267C56.5145 87.2514 56.7425 87.2138 56.8156 87.6677C56.8931 88.1261 56.7027 88.1659 56.4768 88.2014C54.44 88.6575 52.6688 88.8103 51.161 88.8103C49.6533 88.848 48.409 88.735 47.4637 88.6575C47.2378 88.6575 47.012 88.6221 47.0496 88.1637C47.0873 87.7054 47.3131 87.7054 47.5389 87.743" fill="black"/><path fill-rule="evenodd" clip-rule="evenodd" d="M43.9191 140.939C43.7685 140.711 43.6157 140.56 43.5781 140.483C43.5028 140.483 43.4253 140.483 43.3523 140.518C43.2371 140.518 43.0888 140.56 42.9759 140.56C43.0135 140.711 43.0888 140.899 43.1619 141.014C43.277 141.13 43.3523 141.247 43.463 141.282L43.9168 140.939H43.9191Z" fill="#FDD800"/><path fill-rule="evenodd" clip-rule="evenodd" d="M60.1344 55.0588C59.9063 54.8329 59.9462 54.4521 60.2473 54.2993H60.2849C60.513 54.1088 61.0775 53.6903 61.8325 53.5021C62.0583 53.4268 62.2864 53.3892 62.5122 53.3892C62.7004 53.3892 62.9262 53.429 63.1897 53.5397C63.4531 53.6527 63.679 53.7678 63.9048 53.9583C64.2458 54.1487 64.5092 54.3768 64.5491 54.4897C64.5867 54.5296 64.6221 54.7577 64.6221 54.8329C64.5491 55.2492 64.2103 55.329 63.7188 55.402C63.4553 55.4397 63.079 55.4795 62.738 55.67C61.2679 56.4295 60.9646 56.0486 60.4377 55.402C60.3624 55.329 60.2871 55.174 60.1366 55.0588M61.082 54.7931L61.1174 54.8352C61.3454 55.0987 61.4583 55.2913 62.2886 54.8352C62.5897 54.6824 62.8908 54.6049 63.1542 54.5672C63.0435 54.4897 62.9284 54.4144 62.8155 54.379C62.665 54.3413 62.552 54.3015 62.4768 54.3015C62.3262 54.3015 62.2111 54.3413 62.0251 54.379C61.6842 54.4543 61.3476 54.6447 61.082 54.7953" fill="black"/><path fill-rule="evenodd" clip-rule="evenodd" d="M61.8303 57.0757C63.3004 57.8751 64.2435 59.1683 64.6598 60.5767C64.9609 61.5289 64.9963 62.5541 64.8081 63.4687C64.5845 64.4209 64.1328 65.3332 63.4155 66.0174C62.51 66.9696 61.1927 67.5764 59.4569 67.5764C59.2288 67.5764 59.003 67.5764 59.003 67.0803C59.003 66.6618 59.2288 66.6618 59.4569 66.6618C60.9248 66.6242 62.0207 66.1304 62.7757 65.3686C63.3425 64.7973 63.7188 64.0732 63.9048 63.2782C64.0554 62.4811 64.0199 61.6418 63.7919 60.8402C63.4532 59.6599 62.6628 58.5571 61.4163 57.9105C61.2281 57.833 61 57.6825 61.2281 57.3016C61.4163 56.8853 61.6421 57.0004 61.8303 57.0735" fill="#000101"/><path fill-rule="evenodd" clip-rule="evenodd" d="M68.3527 69.5186C68.3151 70.163 68.2398 71.0377 68.4678 71.9146C68.5807 72.4881 68.8066 72.9819 69.183 73.4359C69.183 72.8291 69.2206 72.2578 69.2959 71.6865C69.4088 70.7343 69.6745 69.8618 69.9756 69.1001C70.0508 68.9097 70.1283 68.6816 70.5778 68.872C70.994 69.0624 70.9187 69.2529 70.8412 69.481C70.5401 70.163 70.3165 70.9247 70.2014 71.8415C70.0863 72.601 70.0863 73.4779 70.1615 74.4257C70.2014 74.8066 69.7852 75.0745 69.4841 74.8841C68.3926 74.2353 67.828 73.21 67.5623 72.1427C67.3365 71.1528 67.3741 70.0877 67.4494 69.4035C67.4892 69.1754 67.5247 68.9473 67.9785 68.9827C68.4324 69.0624 68.3948 69.2883 68.3549 69.5164" fill="black"/><path fill-rule="evenodd" clip-rule="evenodd" d="M73.2921 68.2255C73.2567 68.4557 73.2169 68.6838 73.2169 68.9496C73.1416 69.9394 73.2921 71.0798 73.7814 71.9921C74.1224 72.714 74.6515 73.2853 75.4043 73.6286C75.1762 73.0949 75.1032 72.4881 75.1032 71.877C75.0656 70.6989 75.4043 69.481 75.8582 68.644C75.9711 68.4159 76.0862 68.2255 76.498 68.4557C76.8744 68.6838 76.7615 68.8743 76.6862 69.0647C76.2722 69.8242 76.0087 70.8495 76.0087 71.877C76.0087 72.6387 76.1969 73.4359 76.6862 74.0094C76.7991 74.1622 76.8744 74.3527 76.7991 74.5032C76.5733 74.8841 76.0464 74.769 75.7452 74.6937C74.4235 74.4257 73.5202 73.5112 72.9534 72.4106C72.3888 71.3057 72.2006 70.0147 72.3158 68.872C72.3158 68.6041 72.3512 68.3384 72.4243 68.0328C72.4619 67.8047 72.504 67.6165 72.9534 67.694C73.4051 67.7671 73.3696 67.9974 73.2921 68.2255Z" fill="black"/><path fill-rule="evenodd" clip-rule="evenodd" d="M66.1277 94.176C65.9018 94.5569 65.4878 94.9754 65.0716 95.3186C64.6598 95.622 64.2059 95.8501 63.752 95.9276C63.5262 95.9276 63.2251 95.9652 63.1498 95.5091C63.0746 95.0507 63.4133 95.0131 63.6391 94.9754C63.9026 94.9754 64.2413 94.8204 64.507 94.5945C64.8834 94.3266 65.1867 93.9856 65.335 93.7199C65.4502 93.5272 65.6384 93.1884 66.0524 93.4143C66.431 93.68 66.2406 93.9856 66.1277 94.1738" fill="black"/><path fill-rule="evenodd" clip-rule="evenodd" d="M65.4878 92.3491C65.1469 92.9205 64.6576 93.3766 64.1306 93.7199C63.6037 94.1007 62.9993 94.2889 62.4724 94.2889C62.2443 94.2889 61.9432 94.3266 61.9432 93.8704C61.9432 93.3766 62.2443 93.3766 62.4724 93.3766C62.8487 93.3766 63.2627 93.2238 63.6391 92.9581C64.0531 92.6924 64.4317 92.3115 64.6952 91.893C64.8458 91.6649 64.9963 91.3992 65.4125 91.6272C65.7911 91.8575 65.6007 92.1609 65.4878 92.3491Z" fill="black"/><path fill-rule="evenodd" clip-rule="evenodd" d="M61.0819 54.7929L61.1174 54.8349C61.3454 55.0985 61.4583 55.2911 62.2886 54.8349C62.5897 54.6821 62.8908 54.6046 63.1542 54.567C63.0435 54.4895 62.9284 54.4142 62.8155 54.3788C62.6649 54.3411 62.552 54.3013 62.4768 54.3013C62.3262 54.3013 62.2111 54.3411 62.0251 54.3788C61.6841 54.4541 61.3476 54.6445 61.0819 54.7951" fill="#FDD800"/></g><defs><clipPath id="clip0_115_706"><rect width="128" height="169" fill="white"/></clipPath></defs></svg>